<svg width="920" height="80" viewBox="0 0 920 80" fill="none" xmlns="http://www.w3.org/2000/svg">
<rect x="0.5" y="0.5" width="919" height="79" rx="8.16" fill="#FAFAFA" fill-opacity="0.7"/>
<rect x="0.5" y="0.5" width="919" height="79" rx="8.16" stroke="#9E9E9E" stroke-dasharray="10 10"/>
<path d="M292.64 33.9925V32.0909H301.599V33.9925H298.259V43H295.979V33.9925H292.64ZM305.574 43.1598C304.733 43.1598 304.008 42.9893 303.401 42.6484C302.797 42.304 302.332 41.8175 302.005 41.1889C301.679 40.5568 301.515 39.8093 301.515 38.9464C301.515 38.1048 301.679 37.3661 302.005 36.7305C302.332 36.0948 302.792 35.5994 303.385 35.2443C303.981 34.8892 304.681 34.7116 305.484 34.7116C306.023 34.7116 306.526 34.7987 306.991 34.9727C307.46 35.1431 307.868 35.4006 308.216 35.745C308.568 36.0895 308.841 36.5227 309.037 37.0447C309.232 37.5632 309.33 38.1705 309.33 38.8665V39.4897H302.421V38.0835H307.193C307.193 37.7567 307.122 37.4673 306.98 37.2152C306.838 36.9631 306.641 36.766 306.389 36.6239C306.141 36.4783 305.851 36.4055 305.521 36.4055C305.176 36.4055 304.871 36.4854 304.605 36.6452C304.342 36.8015 304.136 37.0128 303.987 37.2791C303.838 37.5419 303.761 37.8349 303.758 38.158V39.495C303.758 39.8999 303.832 40.2496 303.981 40.5444C304.134 40.8391 304.349 41.0664 304.626 41.2262C304.903 41.386 305.231 41.4659 305.611 41.4659C305.864 41.4659 306.094 41.4304 306.304 41.3594C306.513 41.2884 306.693 41.1818 306.842 41.0398C306.991 40.8977 307.105 40.7237 307.183 40.5178L309.282 40.6562C309.175 41.1605 308.957 41.6009 308.626 41.9773C308.3 42.3501 307.877 42.6413 307.359 42.8509C306.844 43.0568 306.249 43.1598 305.574 43.1598ZM313.08 32.0909V43H310.81V32.0909H313.08ZM317.166 32.0909V43H314.897V32.0909H317.166ZM330.084 34.8182L327.223 43H324.666L321.806 34.8182H324.203L325.902 40.6722H325.987L327.681 34.8182H330.084ZM331.245 43V34.8182H333.514V43H331.245ZM332.385 33.7635C332.047 33.7635 331.758 33.6516 331.517 33.4279C331.279 33.2006 331.16 32.929 331.16 32.6129C331.16 32.3004 331.279 32.0323 331.517 31.8086C331.758 31.5813 332.047 31.4677 332.385 31.4677C332.722 31.4677 333.01 31.5813 333.248 31.8086C333.489 32.0323 333.61 32.3004 333.61 32.6129C333.61 32.929 333.489 33.2006 333.248 33.4279C333.01 33.6516 332.722 33.7635 332.385 33.7635ZM339.061 43.1598C338.219 43.1598 337.494 42.9893 336.887 42.6484C336.284 42.304 335.818 41.8175 335.492 41.1889C335.165 40.5568 335.002 39.8093 335.002 38.9464C335.002 38.1048 335.165 37.3661 335.492 36.7305C335.818 36.0948 336.278 35.5994 336.871 35.2443C337.468 34.8892 338.167 34.7116 338.97 34.7116C339.51 34.7116 340.012 34.7987 340.477 34.9727C340.946 35.1431 341.355 35.4006 341.703 35.745C342.054 36.0895 342.328 36.5227 342.523 37.0447C342.718 37.5632 342.816 38.1705 342.816 38.8665V39.4897H335.907V38.0835H340.68C340.68 37.7567 340.609 37.4673 340.467 37.2152C340.325 36.9631 340.128 36.766 339.875 36.6239C339.627 36.4783 339.337 36.4055 339.007 36.4055C338.663 36.4055 338.357 36.4854 338.091 36.6452C337.828 36.8015 337.622 37.0128 337.473 37.2791C337.324 37.5419 337.248 37.8349 337.244 38.158V39.495C337.244 39.8999 337.319 40.2496 337.468 40.5444C337.621 40.8391 337.835 41.0664 338.112 41.2262C338.389 41.386 338.718 41.4659 339.098 41.4659C339.35 41.4659 339.581 41.4304 339.79 41.3594C340 41.2884 340.179 41.1818 340.328 41.0398C340.477 40.8977 340.591 40.7237 340.669 40.5178L342.768 40.6562C342.661 41.1605 342.443 41.6009 342.113 41.9773C341.786 42.3501 341.363 42.6413 340.845 42.8509C340.33 43.0568 339.735 43.1598 339.061 43.1598ZM345.852 43L343.625 34.8182H345.921L347.189 40.3153H347.264L348.585 34.8182H350.838L352.18 40.2834H352.249L353.496 34.8182H355.786L353.565 43H351.163L349.757 37.8544H349.655L348.249 43H345.852ZM360.52 43.1598C359.679 43.1598 358.954 42.9893 358.347 42.6484C357.743 42.304 357.278 41.8175 356.952 41.1889C356.625 40.5568 356.462 39.8093 356.462 38.9464C356.462 38.1048 356.625 37.3661 356.952 36.7305C357.278 36.0948 357.738 35.5994 358.331 35.2443C358.928 34.8892 359.627 34.7116 360.43 34.7116C360.97 34.7116 361.472 34.7987 361.937 34.9727C362.406 35.1431 362.814 35.4006 363.163 35.745C363.514 36.0895 363.788 36.5227 363.983 37.0447C364.178 37.5632 364.276 38.1705 364.276 38.8665V39.4897H357.367V38.0835H362.14C362.14 37.7567 362.069 37.4673 361.927 37.2152C361.785 36.9631 361.588 36.766 361.335 36.6239C361.087 36.4783 360.797 36.4055 360.467 36.4055C360.123 36.4055 359.817 36.4854 359.551 36.6452C359.288 36.8015 359.082 37.0128 358.933 37.2791C358.784 37.5419 358.708 37.8349 358.704 38.158V39.495C358.704 39.8999 358.779 40.2496 358.928 40.5444C359.08 40.8391 359.295 41.0664 359.572 41.2262C359.849 41.386 360.178 41.4659 360.558 41.4659C360.81 41.4659 361.041 41.4304 361.25 41.3594C361.46 41.2884 361.639 41.1818 361.788 41.0398C361.937 40.8977 362.051 40.7237 362.129 40.5178L364.228 40.6562C364.121 41.1605 363.903 41.6009 363.573 41.9773C363.246 42.3501 362.823 42.6413 362.305 42.8509C361.79 43.0568 361.195 43.1598 360.52 43.1598ZM365.757 43V34.8182H367.957V36.2457H368.042C368.191 35.7379 368.441 35.3544 368.793 35.0952C369.144 34.8324 369.549 34.701 370.007 34.701C370.121 34.701 370.243 34.7081 370.375 34.7223C370.506 34.7365 370.622 34.756 370.721 34.7809V36.7944C370.615 36.7624 370.467 36.734 370.279 36.7092C370.091 36.6843 369.919 36.6719 369.762 36.6719C369.428 36.6719 369.13 36.7447 368.867 36.8903C368.608 37.0323 368.402 37.2312 368.25 37.4869C368.1 37.7425 368.026 38.0373 368.026 38.3711V43H365.757ZM378.702 37.1513L376.624 37.2791C376.589 37.1016 376.513 36.9418 376.395 36.7997C376.278 36.6541 376.124 36.5387 375.932 36.4535C375.744 36.3647 375.518 36.3203 375.255 36.3203C374.904 36.3203 374.607 36.3949 374.366 36.544C374.124 36.6896 374.004 36.8849 374.004 37.13C374.004 37.3253 374.082 37.4904 374.238 37.6254C374.394 37.7603 374.662 37.8686 375.042 37.9503L376.523 38.2486C377.319 38.4119 377.912 38.6747 378.302 39.0369C378.693 39.3991 378.888 39.875 378.888 40.4645C378.888 41.0007 378.73 41.4712 378.414 41.8761C378.102 42.2809 377.672 42.5969 377.125 42.8242C376.582 43.0479 375.955 43.1598 375.245 43.1598C374.162 43.1598 373.299 42.9343 372.656 42.4833C372.017 42.0288 371.642 41.4109 371.532 40.6296L373.764 40.5124C373.831 40.8427 373.995 41.0948 374.254 41.2688C374.513 41.4393 374.845 41.5245 375.25 41.5245C375.648 41.5245 375.967 41.4482 376.209 41.2955C376.454 41.1392 376.578 40.9386 376.582 40.6935C376.578 40.4876 376.491 40.3189 376.321 40.1875C376.15 40.0526 375.888 39.9496 375.532 39.8786L374.116 39.5962C373.317 39.4364 372.722 39.1594 372.331 38.7653C371.944 38.3711 371.75 37.8686 371.75 37.2578C371.75 36.7322 371.893 36.2795 372.177 35.8995C372.464 35.5195 372.867 35.2266 373.386 35.0206C373.908 34.8146 374.519 34.7116 375.218 34.7116C376.252 34.7116 377.065 34.93 377.658 35.3668C378.254 35.8036 378.602 36.3984 378.702 37.1513ZM386.122 43.1545C385.6 43.1545 385.135 43.0639 384.726 42.8828C384.318 42.6982 383.995 42.4265 383.757 42.0678C383.523 41.7056 383.405 41.2546 383.405 40.7148C383.405 40.2603 383.489 39.8786 383.656 39.5696C383.823 39.2607 384.05 39.0121 384.337 38.8239C384.625 38.6357 384.952 38.4936 385.318 38.3977C385.687 38.3018 386.074 38.2344 386.479 38.1953C386.955 38.1456 387.338 38.0994 387.629 38.0568C387.921 38.0107 388.132 37.9432 388.263 37.8544C388.395 37.7656 388.46 37.6342 388.46 37.4602V37.4283C388.46 37.0909 388.354 36.8299 388.141 36.6452C387.931 36.4606 387.633 36.3683 387.246 36.3683C386.837 36.3683 386.513 36.4588 386.271 36.6399C386.03 36.8175 385.87 37.0412 385.792 37.3111L383.693 37.1406C383.799 36.6435 384.009 36.2138 384.322 35.8516C384.634 35.4858 385.037 35.2053 385.531 35.0099C386.028 34.8111 386.603 34.7116 387.257 34.7116C387.711 34.7116 388.146 34.7649 388.562 34.8714C388.981 34.978 389.352 35.1431 389.675 35.3668C390.002 35.5906 390.259 35.8782 390.447 36.2298C390.635 36.5778 390.73 36.995 390.73 37.4815V43H388.578V41.8654H388.514C388.382 42.1211 388.206 42.3466 387.986 42.5419C387.766 42.7337 387.502 42.8846 387.193 42.9947C386.884 43.1012 386.527 43.1545 386.122 43.1545ZM386.772 41.5884C387.106 41.5884 387.4 41.5227 387.656 41.3913C387.912 41.2564 388.112 41.0753 388.258 40.848C388.404 40.6207 388.476 40.3633 388.476 40.0756V39.2074C388.405 39.2536 388.308 39.2962 388.183 39.3352C388.063 39.3707 387.926 39.4045 387.773 39.4364C387.621 39.4648 387.468 39.4915 387.315 39.5163C387.162 39.5376 387.024 39.5572 386.9 39.5749C386.633 39.614 386.401 39.6761 386.202 39.7614C386.003 39.8466 385.848 39.962 385.738 40.1076C385.628 40.2496 385.573 40.4272 385.573 40.6403C385.573 40.9492 385.685 41.1854 385.909 41.3487C386.136 41.5085 386.424 41.5884 386.772 41.5884ZM392.533 43V32.0909H394.802V36.1925H394.871C394.97 35.9723 395.114 35.7486 395.303 35.5213C395.494 35.2905 395.743 35.0987 396.048 34.946C396.357 34.7898 396.741 34.7116 397.199 34.7116C397.795 34.7116 398.346 34.8679 398.85 35.1804C399.354 35.4893 399.757 35.9563 400.059 36.5813C400.361 37.2028 400.512 37.9822 400.512 38.9197C400.512 39.8324 400.365 40.603 400.07 41.2315C399.779 41.8565 399.381 42.3306 398.877 42.6538C398.376 42.9734 397.815 43.1332 397.193 43.1332C396.753 43.1332 396.379 43.0604 396.07 42.9148C395.764 42.7692 395.514 42.5863 395.318 42.3661C395.123 42.1424 394.974 41.9169 394.871 41.6896H394.77V43H392.533ZM394.754 38.9091C394.754 39.3956 394.821 39.82 394.956 40.1822C395.091 40.5444 395.287 40.8267 395.542 41.0291C395.798 41.228 396.109 41.3274 396.474 41.3274C396.844 41.3274 397.156 41.2262 397.412 41.0238C397.668 40.8178 397.861 40.5337 397.992 40.1715C398.127 39.8058 398.195 39.3849 398.195 38.9091C398.195 38.4368 398.129 38.0213 397.998 37.6626C397.866 37.304 397.673 37.0234 397.417 36.821C397.162 36.6186 396.847 36.5174 396.474 36.5174C396.105 36.5174 395.793 36.6151 395.537 36.8104C395.285 37.0057 395.091 37.2827 394.956 37.6413C394.821 38 394.754 38.4226 394.754 38.9091ZM405.723 43.1598C404.895 43.1598 404.18 42.984 403.576 42.6325C402.976 42.2773 402.513 41.7837 402.186 41.1516C401.859 40.516 401.696 39.7791 401.696 38.9411C401.696 38.0959 401.859 37.3572 402.186 36.7251C402.513 36.0895 402.976 35.5959 403.576 35.2443C404.18 34.8892 404.895 34.7116 405.723 34.7116C406.55 34.7116 407.264 34.8892 407.864 35.2443C408.468 35.5959 408.933 36.0895 409.26 36.7251C409.587 37.3572 409.75 38.0959 409.75 38.9411C409.75 39.7791 409.587 40.516 409.26 41.1516C408.933 41.7837 408.468 42.2773 407.864 42.6325C407.264 42.984 406.55 43.1598 405.723 43.1598ZM405.734 41.402C406.11 41.402 406.424 41.2955 406.676 41.0824C406.928 40.8658 407.118 40.571 407.246 40.1982C407.378 39.8253 407.443 39.4009 407.443 38.9251C407.443 38.4492 407.378 38.0249 407.246 37.652C407.118 37.2791 406.928 36.9844 406.676 36.7678C406.424 36.5511 406.11 36.4428 405.734 36.4428C405.354 36.4428 405.034 36.5511 404.775 36.7678C404.519 36.9844 404.326 37.2791 404.194 37.652C404.066 38.0249 404.002 38.4492 404.002 38.9251C404.002 39.4009 404.066 39.8253 404.194 40.1982C404.326 40.571 404.519 40.8658 404.775 41.0824C405.034 41.2955 405.354 41.402 405.734 41.402ZM416.472 39.5163V34.8182H418.741V43H416.563V41.5138H416.477C416.293 41.9933 415.986 42.3786 415.556 42.6697C415.13 42.9609 414.61 43.1065 413.995 43.1065C413.448 43.1065 412.967 42.9822 412.552 42.7337C412.136 42.4851 411.811 42.1317 411.577 41.6737C411.346 41.2156 411.229 40.6669 411.225 40.0277V34.8182H413.495V39.6229C413.498 40.1058 413.628 40.4876 413.883 40.7681C414.139 41.0487 414.482 41.1889 414.911 41.1889C415.185 41.1889 415.441 41.1268 415.678 41.0025C415.916 40.8746 416.108 40.6864 416.254 40.4379C416.403 40.1893 416.476 39.8821 416.472 39.5163ZM424.908 34.8182V36.5227H419.981V34.8182H424.908ZM421.1 32.858H423.369V40.4858C423.369 40.6953 423.401 40.8587 423.465 40.9759C423.529 41.0895 423.617 41.1694 423.731 41.2156C423.848 41.2617 423.983 41.2848 424.136 41.2848C424.242 41.2848 424.349 41.2759 424.456 41.2582C424.562 41.2369 424.644 41.2209 424.701 41.2102L425.057 42.8988C424.944 42.9343 424.784 42.9751 424.578 43.0213C424.372 43.071 424.122 43.1012 423.827 43.1119C423.28 43.1332 422.801 43.0604 422.389 42.8935C421.98 42.7266 421.663 42.4673 421.435 42.1158C421.208 41.7642 421.096 41.3203 421.1 40.7841V32.858ZM431.259 46.0682C430.971 46.0682 430.702 46.0451 430.449 45.9989C430.201 45.9563 429.995 45.9013 429.832 45.8338L430.343 44.1399C430.609 44.2216 430.849 44.266 431.062 44.2731C431.279 44.2802 431.465 44.2305 431.621 44.1239C431.781 44.0174 431.911 43.8363 432.01 43.5806L432.143 43.2344L429.208 34.8182H431.595L433.289 40.8267H433.374L435.084 34.8182H437.486L434.306 43.8842C434.153 44.3246 433.946 44.7081 433.683 45.0348C433.424 45.3651 433.095 45.619 432.697 45.7965C432.3 45.9776 431.82 46.0682 431.259 46.0682ZM442.08 43.1598C441.253 43.1598 440.537 42.984 439.934 42.6325C439.333 42.2773 438.87 41.7837 438.543 41.1516C438.217 40.516 438.053 39.7791 438.053 38.9411C438.053 38.0959 438.217 37.3572 438.543 36.7251C438.87 36.0895 439.333 35.5959 439.934 35.2443C440.537 34.8892 441.253 34.7116 442.08 34.7116C442.908 34.7116 443.621 34.8892 444.222 35.2443C444.825 35.5959 445.291 36.0895 445.617 36.7251C445.944 37.3572 446.107 38.0959 446.107 38.9411C446.107 39.7791 445.944 40.516 445.617 41.1516C445.291 41.7837 444.825 42.2773 444.222 42.6325C443.621 42.984 442.908 43.1598 442.08 43.1598ZM442.091 41.402C442.467 41.402 442.782 41.2955 443.034 41.0824C443.286 40.8658 443.476 40.571 443.604 40.1982C443.735 39.8253 443.801 39.4009 443.801 38.9251C443.801 38.4492 443.735 38.0249 443.604 37.652C443.476 37.2791 443.286 36.9844 443.034 36.7678C442.782 36.5511 442.467 36.4428 442.091 36.4428C441.711 36.4428 441.391 36.5511 441.132 36.7678C440.876 36.9844 440.683 37.2791 440.552 37.652C440.424 38.0249 440.36 38.4492 440.36 38.9251C440.36 39.4009 440.424 39.8253 440.552 40.1982C440.683 40.571 440.876 40.8658 441.132 41.0824C441.391 41.2955 441.711 41.402 442.091 41.402ZM452.83 39.5163V34.8182H455.099V43H452.92V41.5138H452.835C452.65 41.9933 452.343 42.3786 451.913 42.6697C451.487 42.9609 450.967 43.1065 450.353 43.1065C449.806 43.1065 449.325 42.9822 448.909 42.7337C448.494 42.4851 448.169 42.1317 447.934 41.6737C447.704 41.2156 447.586 40.6669 447.583 40.0277V34.8182H449.852V39.6229C449.856 40.1058 449.985 40.4876 450.241 40.7681C450.496 41.0487 450.839 41.1889 451.269 41.1889C451.542 41.1889 451.798 41.1268 452.036 41.0025C452.274 40.8746 452.466 40.6864 452.611 40.4379C452.76 40.1893 452.833 39.8821 452.83 39.5163ZM456.914 43V34.8182H459.114V36.2457H459.199C459.348 35.7379 459.598 35.3544 459.95 35.0952C460.302 34.8324 460.706 34.701 461.165 34.701C461.278 34.701 461.401 34.7081 461.532 34.7223C461.663 34.7365 461.779 34.756 461.878 34.7809V36.7944C461.772 36.7624 461.624 36.734 461.436 36.7092C461.248 36.6843 461.076 36.6719 460.92 36.6719C460.586 36.6719 460.287 36.7447 460.025 36.8903C459.765 37.0323 459.559 37.2312 459.407 37.4869C459.258 37.7425 459.183 38.0373 459.183 38.3711V43H456.914ZM474.151 34.8182L471.291 43H468.734L465.873 34.8182H468.27L469.97 40.6722H470.055L471.749 34.8182H474.151ZM475.312 43V34.8182H477.581V43H475.312ZM476.452 33.7635C476.115 33.7635 475.825 33.6516 475.584 33.4279C475.346 33.2006 475.227 32.929 475.227 32.6129C475.227 32.3004 475.346 32.0323 475.584 31.8086C475.825 31.5813 476.115 31.4677 476.452 31.4677C476.79 31.4677 477.077 31.5813 477.315 31.8086C477.557 32.0323 477.677 32.3004 477.677 32.6129C477.677 32.929 477.557 33.2006 477.315 33.4279C477.077 33.6516 476.79 33.7635 476.452 33.7635ZM482.414 43.1332C481.793 43.1332 481.23 42.9734 480.726 42.6538C480.225 42.3306 479.827 41.8565 479.532 41.2315C479.241 40.603 479.096 39.8324 479.096 38.9197C479.096 37.9822 479.246 37.2028 479.548 36.5813C479.85 35.9563 480.251 35.4893 480.752 35.1804C481.256 34.8679 481.809 34.7116 482.409 34.7116C482.867 34.7116 483.249 34.7898 483.554 34.946C483.863 35.0987 484.112 35.2905 484.3 35.5213C484.492 35.7486 484.637 35.9723 484.737 36.1925H484.806V32.0909H487.07V43H484.832V41.6896H484.737C484.63 41.9169 484.479 42.1424 484.284 42.3661C484.092 42.5863 483.842 42.7692 483.533 42.9148C483.227 43.0604 482.854 43.1332 482.414 43.1332ZM483.133 41.3274C483.499 41.3274 483.808 41.228 484.06 41.0291C484.316 40.8267 484.511 40.5444 484.646 40.1822C484.784 39.82 484.854 39.3956 484.854 38.9091C484.854 38.4226 484.786 38 484.651 37.6413C484.516 37.2827 484.321 37.0057 484.065 36.8104C483.81 36.6151 483.499 36.5174 483.133 36.5174C482.76 36.5174 482.446 36.6186 482.19 36.821C481.935 37.0234 481.741 37.304 481.61 37.6626C481.478 38.0213 481.413 38.4368 481.413 38.9091C481.413 39.3849 481.478 39.8058 481.61 40.1715C481.745 40.5337 481.938 40.8178 482.19 41.0238C482.446 41.2262 482.76 41.3274 483.133 41.3274ZM492.664 43.1598C491.822 43.1598 491.098 42.9893 490.491 42.6484C489.887 42.304 489.422 41.8175 489.095 41.1889C488.768 40.5568 488.605 39.8093 488.605 38.9464C488.605 38.1048 488.768 37.3661 489.095 36.7305C489.422 36.0948 489.882 35.5994 490.475 35.2443C491.071 34.8892 491.771 34.7116 492.573 34.7116C493.113 34.7116 493.616 34.7987 494.081 34.9727C494.55 35.1431 494.958 35.4006 495.306 35.745C495.658 36.0895 495.931 36.5227 496.126 37.0447C496.322 37.5632 496.419 38.1705 496.419 38.8665V39.4897H489.511V38.0835H494.283C494.283 37.7567 494.212 37.4673 494.07 37.2152C493.928 36.9631 493.731 36.766 493.479 36.6239C493.23 36.4783 492.941 36.4055 492.611 36.4055C492.266 36.4055 491.961 36.4854 491.695 36.6452C491.432 36.8015 491.226 37.0128 491.077 37.2791C490.928 37.5419 490.851 37.8349 490.848 38.158V39.495C490.848 39.8999 490.922 40.2496 491.071 40.5444C491.224 40.8391 491.439 41.0664 491.716 41.2262C491.993 41.386 492.321 41.4659 492.701 41.4659C492.953 41.4659 493.184 41.4304 493.394 41.3594C493.603 41.2884 493.783 41.1818 493.932 41.0398C494.081 40.8977 494.195 40.7237 494.273 40.5178L496.371 40.6562C496.265 41.1605 496.046 41.6009 495.716 41.9773C495.39 42.3501 494.967 42.6413 494.448 42.8509C493.934 43.0568 493.339 43.1598 492.664 43.1598ZM501.597 43.1598C500.769 43.1598 500.054 42.984 499.45 42.6325C498.85 42.2773 498.387 41.7837 498.06 41.1516C497.733 40.516 497.57 39.7791 497.57 38.9411C497.57 38.0959 497.733 37.3572 498.06 36.7251C498.387 36.0895 498.85 35.5959 499.45 35.2443C500.054 34.8892 500.769 34.7116 501.597 34.7116C502.424 34.7116 503.138 34.8892 503.738 35.2443C504.342 35.5959 504.807 36.0895 505.134 36.7251C505.461 37.3572 505.624 38.0959 505.624 38.9411C505.624 39.7791 505.461 40.516 505.134 41.1516C504.807 41.7837 504.342 42.2773 503.738 42.6325C503.138 42.984 502.424 43.1598 501.597 43.1598ZM501.608 41.402C501.984 41.402 502.298 41.2955 502.55 41.0824C502.803 40.8658 502.992 40.571 503.12 40.1982C503.252 39.8253 503.317 39.4009 503.317 38.9251C503.317 38.4492 503.252 38.0249 503.12 37.652C502.992 37.2791 502.803 36.9844 502.55 36.7678C502.298 36.5511 501.984 36.4428 501.608 36.4428C501.228 36.4428 500.908 36.5511 500.649 36.7678C500.393 36.9844 500.2 37.2791 500.068 37.652C499.94 38.0249 499.876 38.4492 499.876 38.9251C499.876 39.4009 499.94 39.8253 500.068 40.1982C500.2 40.571 500.393 40.8658 500.649 41.0824C500.908 41.2955 501.228 41.402 501.608 41.402ZM511.072 37.5455C511.072 36.2244 511.248 35.0082 511.599 33.8967C511.954 32.7852 512.496 31.7553 513.224 30.8072H515.392C515.115 31.1587 514.857 31.5884 514.619 32.0962C514.381 32.6005 514.174 33.1545 513.996 33.7582C513.819 34.3619 513.68 34.9869 513.581 35.6332C513.481 36.2759 513.432 36.9134 513.432 37.5455C513.432 38.3871 513.517 39.2376 513.687 40.0969C513.861 40.9528 514.096 41.7482 514.39 42.4833C514.689 43.2184 515.022 43.8203 515.392 44.2891H513.224C512.496 43.3409 511.954 42.3111 511.599 41.1996C511.248 40.0881 511.072 38.87 511.072 37.5455ZM516.751 43V32.0909H519.058V41.0984H523.735V43H516.751ZM528.948 43.1598C528.107 43.1598 527.382 42.9893 526.775 42.6484C526.171 42.304 525.706 41.8175 525.379 41.1889C525.053 40.5568 524.889 39.8093 524.889 38.9464C524.889 38.1048 525.053 37.3661 525.379 36.7305C525.706 36.0948 526.166 35.5994 526.759 35.2443C527.356 34.8892 528.055 34.7116 528.858 34.7116C529.397 34.7116 529.9 34.7987 530.365 34.9727C530.834 35.1431 531.242 35.4006 531.59 35.745C531.942 36.0895 532.215 36.5227 532.411 37.0447C532.606 37.5632 532.704 38.1705 532.704 38.8665V39.4897H525.795V38.0835H530.568C530.568 37.7567 530.496 37.4673 530.354 37.2152C530.212 36.9631 530.015 36.766 529.763 36.6239C529.515 36.4783 529.225 36.4055 528.895 36.4055C528.55 36.4055 528.245 36.4854 527.979 36.6452C527.716 36.8015 527.51 37.0128 527.361 37.2791C527.212 37.5419 527.135 37.8349 527.132 38.158V39.495C527.132 39.8999 527.206 40.2496 527.356 40.5444C527.508 40.8391 527.723 41.0664 528 41.2262C528.277 41.386 528.606 41.4659 528.985 41.4659C529.238 41.4659 529.468 41.4304 529.678 41.3594C529.887 41.2884 530.067 41.1818 530.216 41.0398C530.365 40.8977 530.479 40.7237 530.557 40.5178L532.656 40.6562C532.549 41.1605 532.331 41.6009 532 41.9773C531.674 42.3501 531.251 42.6413 530.733 42.8509C530.218 43.0568 529.623 43.1598 528.948 43.1598ZM540.992 37.1513L538.914 37.2791C538.879 37.1016 538.803 36.9418 538.685 36.7997C538.568 36.6541 538.414 36.5387 538.222 36.4535C538.034 36.3647 537.808 36.3203 537.545 36.3203C537.194 36.3203 536.897 36.3949 536.656 36.544C536.414 36.6896 536.294 36.8849 536.294 37.13C536.294 37.3253 536.372 37.4904 536.528 37.6254C536.684 37.7603 536.952 37.8686 537.332 37.9503L538.813 38.2486C539.609 38.4119 540.202 38.6747 540.592 39.0369C540.983 39.3991 541.178 39.875 541.178 40.4645C541.178 41.0007 541.02 41.4712 540.704 41.8761C540.392 42.2809 539.962 42.5969 539.415 42.8242C538.872 43.0479 538.245 43.1598 537.535 43.1598C536.452 43.1598 535.589 42.9343 534.946 42.4833C534.307 42.0288 533.932 41.4109 533.822 40.6296L536.054 40.5124C536.121 40.8427 536.285 41.0948 536.544 41.2688C536.803 41.4393 537.135 41.5245 537.54 41.5245C537.938 41.5245 538.258 41.4482 538.499 41.2955C538.744 41.1392 538.868 40.9386 538.872 40.6935C538.868 40.4876 538.781 40.3189 538.611 40.1875C538.44 40.0526 538.178 39.9496 537.822 39.8786L536.406 39.5962C535.607 39.4364 535.012 39.1594 534.621 38.7653C534.234 38.3711 534.041 37.8686 534.041 37.2578C534.041 36.7322 534.183 36.2795 534.467 35.8995C534.754 35.5195 535.157 35.2266 535.676 35.0206C536.198 34.8146 536.809 34.7116 537.508 34.7116C538.542 34.7116 539.355 34.93 539.948 35.3668C540.544 35.8036 540.892 36.3984 540.992 37.1513ZM549.415 37.1513L547.337 37.2791C547.302 37.1016 547.225 36.9418 547.108 36.7997C546.991 36.6541 546.837 36.5387 546.645 36.4535C546.457 36.3647 546.231 36.3203 545.968 36.3203C545.617 36.3203 545.32 36.3949 545.079 36.544C544.837 36.6896 544.717 36.8849 544.717 37.13C544.717 37.3253 544.795 37.4904 544.951 37.6254C545.107 37.7603 545.375 37.8686 545.755 37.9503L547.236 38.2486C548.032 38.4119 548.625 38.6747 549.015 39.0369C549.406 39.3991 549.601 39.875 549.601 40.4645C549.601 41.0007 549.443 41.4712 549.127 41.8761C548.815 42.2809 548.385 42.5969 547.838 42.8242C547.295 43.0479 546.668 43.1598 545.958 43.1598C544.875 43.1598 544.012 42.9343 543.369 42.4833C542.73 42.0288 542.355 41.4109 542.245 40.6296L544.477 40.5124C544.544 40.8427 544.708 41.0948 544.967 41.2688C545.226 41.4393 545.558 41.5245 545.963 41.5245C546.361 41.5245 546.68 41.4482 546.922 41.2955C547.167 41.1392 547.291 40.9386 547.295 40.6935C547.291 40.4876 547.204 40.3189 547.034 40.1875C546.863 40.0526 546.6 39.9496 546.245 39.8786L544.828 39.5962C544.029 39.4364 543.435 39.1594 543.044 38.7653C542.657 38.3711 542.463 37.8686 542.463 37.2578C542.463 36.7322 542.605 36.2795 542.89 35.8995C543.177 35.5195 543.58 35.2266 544.099 35.0206C544.621 34.8146 545.231 34.7116 545.931 34.7116C546.964 34.7116 547.778 34.93 548.371 35.3668C548.967 35.8036 549.315 36.3984 549.415 37.1513ZM554.727 43.1598C553.899 43.1598 553.184 42.984 552.58 42.6325C551.98 42.2773 551.517 41.7837 551.19 41.1516C550.863 40.516 550.7 39.7791 550.7 38.9411C550.7 38.0959 550.863 37.3572 551.19 36.7251C551.517 36.0895 551.98 35.5959 552.58 35.2443C553.184 34.8892 553.899 34.7116 554.727 34.7116C555.554 34.7116 556.268 34.8892 556.868 35.2443C557.472 35.5959 557.937 36.0895 558.264 36.7251C558.59 37.3572 558.754 38.0959 558.754 38.9411C558.754 39.7791 558.59 40.516 558.264 41.1516C557.937 41.7837 557.472 42.2773 556.868 42.6325C556.268 42.984 555.554 43.1598 554.727 43.1598ZM554.737 41.402C555.114 41.402 555.428 41.2955 555.68 41.0824C555.932 40.8658 556.122 40.571 556.25 40.1982C556.382 39.8253 556.447 39.4009 556.447 38.9251C556.447 38.4492 556.382 38.0249 556.25 37.652C556.122 37.2791 555.932 36.9844 555.68 36.7678C555.428 36.5511 555.114 36.4428 554.737 36.4428C554.357 36.4428 554.038 36.5511 553.779 36.7678C553.523 36.9844 553.329 37.2791 553.198 37.652C553.07 38.0249 553.006 38.4492 553.006 38.9251C553.006 39.4009 553.07 39.8253 553.198 40.1982C553.329 40.571 553.523 40.8658 553.779 41.0824C554.038 41.2955 554.357 41.402 554.737 41.402ZM562.498 38.2699V43H560.229V34.8182H562.392V36.2617H562.488C562.669 35.7859 562.973 35.4094 563.399 35.1325C563.825 34.8519 564.341 34.7116 564.949 34.7116C565.517 34.7116 566.012 34.8359 566.435 35.0845C566.857 35.3331 567.186 35.6882 567.42 36.1499C567.655 36.608 567.772 37.1548 567.772 37.7905V43H565.503V38.1953C565.506 37.6946 565.378 37.304 565.119 37.0234C564.86 36.7393 564.503 36.5973 564.049 36.5973C563.743 36.5973 563.473 36.663 563.239 36.7944C563.008 36.9258 562.827 37.1175 562.696 37.3697C562.568 37.6183 562.502 37.9183 562.498 38.2699ZM576.047 43.1332C575.425 43.1332 574.863 42.9734 574.358 42.6538C573.858 42.3306 573.46 41.8565 573.165 41.2315C572.874 40.603 572.728 39.8324 572.728 38.9197C572.728 37.9822 572.879 37.2028 573.181 36.5813C573.483 35.9563 573.884 35.4893 574.385 35.1804C574.889 34.8679 575.441 34.7116 576.042 34.7116C576.5 34.7116 576.881 34.7898 577.187 34.946C577.496 35.0987 577.744 35.2905 577.933 35.5213C578.124 35.7486 578.27 35.9723 578.369 36.1925H578.439V32.0909H580.702V43H578.465V41.6896H578.369C578.263 41.9169 578.112 42.1424 577.917 42.3661C577.725 42.5863 577.474 42.7692 577.166 42.9148C576.86 43.0604 576.487 43.1332 576.047 43.1332ZM576.766 41.3274C577.132 41.3274 577.441 41.228 577.693 41.0291C577.949 40.8267 578.144 40.5444 578.279 40.1822C578.417 39.82 578.487 39.3956 578.487 38.9091C578.487 38.4226 578.419 38 578.284 37.6413C578.149 37.2827 577.954 37.0057 577.698 36.8104C577.443 36.6151 577.132 36.5174 576.766 36.5174C576.393 36.5174 576.079 36.6186 575.823 36.821C575.568 37.0234 575.374 37.304 575.243 37.6626C575.111 38.0213 575.045 38.4368 575.045 38.9091C575.045 39.3849 575.111 39.8058 575.243 40.1715C575.378 40.5337 575.571 40.8178 575.823 41.0238C576.079 41.2262 576.393 41.3274 576.766 41.3274ZM586.297 43.1598C585.455 43.1598 584.731 42.9893 584.124 42.6484C583.52 42.304 583.055 41.8175 582.728 41.1889C582.401 40.5568 582.238 39.8093 582.238 38.9464C582.238 38.1048 582.401 37.3661 582.728 36.7305C583.055 36.0948 583.515 35.5994 584.108 35.2443C584.704 34.8892 585.404 34.7116 586.206 34.7116C586.746 34.7116 587.249 34.7987 587.714 34.9727C588.182 35.1431 588.591 35.4006 588.939 35.745C589.29 36.0895 589.564 36.5227 589.759 37.0447C589.955 37.5632 590.052 38.1705 590.052 38.8665V39.4897H583.143V38.0835H587.916C587.916 37.7567 587.845 37.4673 587.703 37.2152C587.561 36.9631 587.364 36.766 587.112 36.6239C586.863 36.4783 586.574 36.4055 586.244 36.4055C585.899 36.4055 585.594 36.4854 585.327 36.6452C585.065 36.8015 584.859 37.0128 584.709 37.2791C584.56 37.5419 584.484 37.8349 584.48 38.158V39.495C584.48 39.8999 584.555 40.2496 584.704 40.5444C584.857 40.8391 585.072 41.0664 585.349 41.2262C585.626 41.386 585.954 41.4659 586.334 41.4659C586.586 41.4659 586.817 41.4304 587.027 41.3594C587.236 41.2884 587.415 41.1818 587.565 41.0398C587.714 40.8977 587.827 40.7237 587.905 40.5178L590.004 40.6562C589.898 41.1605 589.679 41.6009 589.349 41.9773C589.022 42.3501 588.6 42.6413 588.081 42.8509C587.566 43.0568 586.972 43.1598 586.297 43.1598ZM595.885 34.8182V36.5227H590.958V34.8182H595.885ZM592.076 32.858H594.345V40.4858C594.345 40.6953 594.377 40.8587 594.441 40.9759C594.505 41.0895 594.594 41.1694 594.708 41.2156C594.825 41.2617 594.96 41.2848 595.113 41.2848C595.219 41.2848 595.326 41.2759 595.432 41.2582C595.539 41.2369 595.62 41.2209 595.677 41.2102L596.034 42.8988C595.92 42.9343 595.761 42.9751 595.555 43.0213C595.349 43.071 595.098 43.1012 594.804 43.1119C594.257 43.1332 593.777 43.0604 593.365 42.8935C592.957 42.7266 592.639 42.4673 592.412 42.1158C592.185 41.7642 592.073 41.3203 592.076 40.7841V32.858ZM599.696 43.1545C599.174 43.1545 598.709 43.0639 598.301 42.8828C597.892 42.6982 597.569 42.4265 597.331 42.0678C597.097 41.7056 596.98 41.2546 596.98 40.7148C596.98 40.2603 597.063 39.8786 597.23 39.5696C597.397 39.2607 597.624 39.0121 597.912 38.8239C598.199 38.6357 598.526 38.4936 598.892 38.3977C599.261 38.3018 599.648 38.2344 600.053 38.1953C600.529 38.1456 600.912 38.0994 601.204 38.0568C601.495 38.0107 601.706 37.9432 601.837 37.8544C601.969 37.7656 602.035 37.6342 602.035 37.4602V37.4283C602.035 37.0909 601.928 36.8299 601.715 36.6452C601.505 36.4606 601.207 36.3683 600.82 36.3683C600.412 36.3683 600.087 36.4588 599.845 36.6399C599.604 36.8175 599.444 37.0412 599.366 37.3111L597.267 37.1406C597.374 36.6435 597.583 36.2138 597.896 35.8516C598.208 35.4858 598.611 35.2053 599.105 35.0099C599.602 34.8111 600.177 34.7116 600.831 34.7116C601.285 34.7116 601.72 34.7649 602.136 34.8714C602.555 34.978 602.926 35.1431 603.249 35.3668C603.576 35.5906 603.833 35.8782 604.021 36.2298C604.21 36.5778 604.304 36.995 604.304 37.4815V43H602.152V41.8654H602.088C601.956 42.1211 601.781 42.3466 601.561 42.5419C601.34 42.7337 601.076 42.8846 600.767 42.9947C600.458 43.1012 600.101 43.1545 599.696 43.1545ZM600.346 41.5884C600.68 41.5884 600.975 41.5227 601.23 41.3913C601.486 41.2564 601.687 41.0753 601.832 40.848C601.978 40.6207 602.051 40.3633 602.051 40.0756V39.2074C601.98 39.2536 601.882 39.2962 601.758 39.3352C601.637 39.3707 601.5 39.4045 601.347 39.4364C601.195 39.4648 601.042 39.4915 600.889 39.5163C600.737 39.5376 600.598 39.5572 600.474 39.5749C600.208 39.614 599.975 39.6761 599.776 39.7614C599.577 39.8466 599.423 39.962 599.313 40.1076C599.203 40.2496 599.148 40.4272 599.148 40.6403C599.148 40.9492 599.259 41.1854 599.483 41.3487C599.71 41.5085 599.998 41.5884 600.346 41.5884ZM606.064 43V34.8182H608.333V43H606.064ZM607.204 33.7635C606.867 33.7635 606.577 33.6516 606.336 33.4279C606.098 33.2006 605.979 32.929 605.979 32.6129C605.979 32.3004 606.098 32.0323 606.336 31.8086C606.577 31.5813 606.867 31.4677 607.204 31.4677C607.542 31.4677 607.829 31.5813 608.067 31.8086C608.309 32.0323 608.429 32.3004 608.429 32.6129C608.429 32.929 608.309 33.2006 608.067 33.4279C607.829 33.6516 607.542 33.7635 607.204 33.7635ZM612.42 32.0909V43H610.151V32.0909H612.42ZM621.046 37.1513L618.968 37.2791C618.933 37.1016 618.856 36.9418 618.739 36.7997C618.622 36.6541 618.467 36.5387 618.276 36.4535C618.087 36.3647 617.862 36.3203 617.599 36.3203C617.248 36.3203 616.951 36.3949 616.71 36.544C616.468 36.6896 616.347 36.8849 616.347 37.13C616.347 37.3253 616.426 37.4904 616.582 37.6254C616.738 37.7603 617.006 37.8686 617.386 37.9503L618.867 38.2486C619.662 38.4119 620.255 38.6747 620.646 39.0369C621.037 39.3991 621.232 39.875 621.232 40.4645C621.232 41.0007 621.074 41.4712 620.758 41.8761C620.445 42.2809 620.016 42.5969 619.469 42.8242C618.926 43.0479 618.299 43.1598 617.589 43.1598C616.505 43.1598 615.643 42.9343 615 42.4833C614.361 42.0288 613.986 41.4109 613.876 40.6296L616.108 40.5124C616.175 40.8427 616.339 41.0948 616.598 41.2688C616.857 41.4393 617.189 41.5245 617.594 41.5245C617.992 41.5245 618.311 41.4482 618.553 41.2955C618.798 41.1392 618.922 40.9386 618.926 40.6935C618.922 40.4876 618.835 40.3189 618.665 40.1875C618.494 40.0526 618.231 39.9496 617.876 39.8786L616.459 39.5962C615.66 39.4364 615.065 39.1594 614.675 38.7653C614.288 38.3711 614.094 37.8686 614.094 37.2578C614.094 36.7322 614.236 36.2795 614.52 35.8995C614.808 35.5195 615.211 35.2266 615.73 35.0206C616.252 34.8146 616.862 34.7116 617.562 34.7116C618.595 34.7116 619.409 34.93 620.002 35.3668C620.598 35.8036 620.946 36.3984 621.046 37.1513ZM626.485 38.6268C626.485 39.9513 626.308 41.1694 625.953 42.2809C625.601 43.3924 625.061 44.4222 624.333 45.3704H622.166C622.443 45.0188 622.7 44.5891 622.938 44.0813C623.176 43.5735 623.384 43.0195 623.561 42.4194C623.739 41.8157 623.877 41.1907 623.977 40.5444C624.076 39.8981 624.126 39.2589 624.126 38.6268C624.126 37.7852 624.039 36.9364 623.865 36.0806C623.694 35.2212 623.46 34.4258 623.162 33.6942C622.867 32.9592 622.535 32.3572 622.166 31.8885H624.333C625.061 32.8366 625.601 33.8665 625.953 34.978C626.308 36.0895 626.485 37.3058 626.485 38.6268Z" fill="#D9D9D9"/>
</svg>
