<svg width="422" height="312" viewBox="0 0 422 312" fill="none" xmlns="http://www.w3.org/2000/svg">
<g clip-path="url(#clip0_197_200)">
<path d="M382.122 310.555H292.644V307.814C292.644 305.435 293.591 303.153 295.276 301.47C296.962 299.788 299.249 298.843 301.633 298.843H373.133C375.517 298.843 377.803 299.788 379.489 301.47C381.175 303.153 382.122 305.435 382.122 307.814V310.555Z" fill="#E6E6E6"/>
<path d="M335.289 299.39L338.01 298.296C309.538 227.762 312.281 138.777 336.349 62.4443C339.208 53.6 339.414 44.1145 336.942 35.1549C334.47 26.1952 329.428 18.1521 322.436 12.0151C308.466 -0.426911 289.207 -3.4579 272.171 4.1042C255.356 11.5698 253.038 24.5737 253.038 37.5144H255.972C255.972 23.7009 258.93 13.1879 273.364 6.77954C289.33 -0.307529 307.385 2.5351 320.482 14.2001C327.05 19.964 331.786 27.5183 334.107 35.9336C336.429 44.3489 336.236 53.2581 333.55 61.565C309.205 138.779 306.623 228.375 335.289 299.39Z" fill="#E6E6E6"/>
<path d="M255.238 80.7029C260.909 80.7029 265.506 76.1146 265.506 70.4547C265.506 64.7948 260.909 60.2065 255.238 60.2065C249.567 60.2065 244.97 64.7948 244.97 70.4547C244.97 76.1146 249.567 80.7029 255.238 80.7029Z" fill="#E6E6E6"/>
<path d="M239.424 88.3207V68.9028H242.45V88.3207C243.317 88.671 244.036 89.3117 244.482 90.1328C244.929 90.954 245.075 91.9046 244.896 92.8216C244.717 93.7387 244.225 94.5651 243.502 95.1593C242.78 95.7535 241.873 96.0784 240.937 96.0784C240.001 96.0784 239.094 95.7535 238.372 95.1593C237.649 94.5651 237.156 93.7387 236.978 92.8216C236.799 91.9046 236.945 90.954 237.392 90.1328C237.838 89.3117 238.557 88.671 239.424 88.3207Z" fill="#E6E6E6"/>
<path d="M224.801 53.9847C224.806 49.521 226.585 45.2416 229.747 42.0853C232.91 38.929 237.197 37.1535 241.67 37.1484H269.54C274.014 37.1484 278.305 38.9223 281.468 42.0797C284.632 45.2371 286.409 49.5195 286.409 53.9847C286.409 58.45 284.632 62.7324 281.468 65.8898C278.305 69.0472 274.014 70.821 269.54 70.821H241.67C237.197 70.8159 232.91 69.0405 229.747 65.8842C226.585 62.7279 224.806 58.4484 224.801 53.9847Z" fill="#6C63FF"/>
<path d="M185.533 158.246C188.331 122.514 202.639 105.49 193.477 94.8138C184.702 84.5874 159.984 86.6999 144.109 96.5128C101.292 122.981 85.6048 228.471 140.704 280.012C193.063 328.988 292.293 313.302 314.345 273.216C319.49 263.862 323.578 247.466 316.047 237.535C297.351 212.881 229.375 257.536 199.152 229.606C181.241 213.054 183.997 177.855 185.533 158.246Z" fill="#3F3D56"/>
<path d="M218.263 140.494C217.223 140.971 216.411 141.835 215.999 142.901C215.588 143.967 215.609 145.151 216.059 146.202C216.154 146.414 216.266 146.618 216.394 146.811L207.204 159.059L211.79 165.9L222.562 147.764C223.325 147.17 223.87 146.34 224.111 145.405C224.352 144.469 224.277 143.48 223.895 142.593C223.674 142.089 223.355 141.635 222.957 141.254C222.559 140.874 222.09 140.576 221.577 140.377C221.064 140.177 220.516 140.081 219.966 140.093C219.415 140.105 218.872 140.225 218.368 140.446C218.333 140.461 218.298 140.477 218.263 140.494Z" fill="#FFB6B6"/>
<path d="M218.256 161.61C218.857 162.143 217.189 162.8 215.424 161.763C214.919 161.463 214.703 161.338 214.647 161.418C214.505 161.616 215.333 163.077 215.112 166.322C214.976 168.259 211.753 171.901 208.093 175.452C203.144 180.255 197.39 184.888 197.39 184.888L195.37 183.273L174.187 166.322L170.612 161.384C170.94 159.434 171.431 157.514 172.082 155.647C172.978 153.061 174.044 150.538 175.271 148.091C175.929 146.761 176.605 145.492 177.252 144.325L188.601 156.808L198.111 167.263C198.111 167.263 200.88 162.811 203.025 161.599C203.299 161.425 203.61 161.318 203.933 161.288C206.101 161.186 206.231 160.008 203.718 157.442C201.204 154.876 204.376 157.272 206.611 156.581C208.847 155.89 206.612 156.581 207.083 154.854C207.554 153.126 213.824 149.66 213.824 149.66L214.085 149.892L218.823 154.067L220.179 155.262C220.179 155.262 218.698 159.317 218.29 160.172C217.881 161.027 217.66 161.072 218.256 161.61Z" fill="#6C63FF"/>
<path d="M343.161 240.286L343.392 234.039L319.36 230.177L319.019 239.396L343.161 240.286Z" fill="#FFB6B6"/>
<path d="M338.799 242.166L338.571 232.164L342.856 232.322L349.772 223.075C350.114 222.618 350.593 222.283 351.139 222.117C351.685 221.951 352.27 221.964 352.809 222.153C353.347 222.343 353.811 222.699 354.132 223.17C354.454 223.642 354.615 224.203 354.594 224.772L354.155 236.654L349.842 238.546L354.05 239.502L353.884 243.982L338.799 242.166Z" fill="#2F2E41"/>
<path d="M207.904 242.718L284.024 244.644C284.024 244.644 316.895 246.539 324.608 241.532L332.74 240.507L333.181 228.584C333.181 228.584 328.208 228.62 325.349 227.291C322.489 225.961 324.477 224.334 321.75 225.934C319.024 227.534 319.312 227.726 317.204 226.991C315.097 226.256 218.439 211.551 218.439 211.551L207.904 242.718Z" fill="#2F2E41"/>
<path d="M308.21 237.544L312.637 233.121L297.65 213.976L291.117 220.504L308.21 237.544Z" fill="#FFB6B6"/>
<path d="M303.729 233.696L310.378 226.209L313.412 229.233L324.783 227.149C325.345 227.046 325.925 227.125 326.438 227.374C326.952 227.624 327.372 228.03 327.638 228.535C327.903 229.039 328.001 229.615 327.915 230.179C327.829 230.742 327.565 231.264 327.162 231.667L318.743 240.079L314.291 238.538L316.725 242.095L313.551 245.267L303.729 233.696Z" fill="#2F2E41"/>
<path d="M177.872 201.11L178.629 218.667C179.52 239.335 202.325 251.845 220.009 241.053C220.335 240.854 220.662 240.648 220.99 240.435C220.99 240.435 227.694 238.638 227.491 235.793C227.287 232.947 228.925 231.562 230.374 232.338C231.824 233.114 250.801 206.234 250.801 206.234C250.801 206.234 290.228 225.864 298.926 230.484C298.926 230.484 307.104 217.723 306.511 217.856C305.918 217.99 257.734 184.331 257.734 184.331C257.734 184.331 249.885 176.402 240.147 181.637C239.945 182.406 240.118 182.433 240.118 182.433L207.952 208.592L203.407 199.978L177.872 201.11Z" fill="#2F2E41"/>
<path d="M208.2 179.162C208.139 179.973 208.023 180.779 207.854 181.574C207.622 182.726 207.249 183.845 206.742 184.905C206.742 184.905 206.742 186.088 204.472 190.053C202.202 194.017 205.04 192.318 206.742 195.263C208.444 198.203 206.742 196.849 204.852 198.741C204.308 199.291 203.922 199.977 203.733 200.727C203.545 201.477 203.561 202.264 203.78 203.005C203.78 203.005 179.402 203.022 174.862 201.323C170.323 199.624 169.29 190.053 173.359 189.107C177.422 188.161 172.127 187.221 169.738 185.041C167.349 182.86 172.127 179.292 172.127 179.292C172.127 179.292 170.158 175.9 170.323 164.51C170.346 163.463 170.443 162.418 170.612 161.384C170.939 159.434 171.431 157.514 172.082 155.647C172.978 153.061 174.043 150.538 175.271 148.092C175.929 146.761 176.604 145.492 177.251 144.325C177.353 144.144 177.45 143.968 177.552 143.793C178.783 141.618 179.907 139.84 180.65 138.701C181.223 137.818 181.57 137.319 181.57 137.319L185.701 130.149L199.49 136.6L198.707 147.151L201.084 155.109L202.179 158.773L203.025 161.599L204.33 165.977C204.33 165.977 203.973 165.994 204.398 166.577C206.358 169.178 207.629 172.231 208.092 175.452C208.256 176.682 208.292 177.925 208.2 179.162Z" fill="#6C63FF"/>
<path d="M248.021 180.299L247.762 180.215L214.759 169.608L226.92 129.786C227.163 128.993 227.582 128.266 228.147 127.658C228.712 127.05 229.408 126.579 230.182 126.278C230.956 125.978 231.788 125.857 232.616 125.924C233.444 125.992 234.246 126.246 234.961 126.668L256.052 139.104C257.721 140.088 258.991 141.625 259.64 143.448C260.289 145.272 260.275 147.264 259.602 149.079L248.021 180.299Z" fill="#2F2E41"/>
<path d="M248.156 182.83L214.887 172.138L227.048 132.316C227.291 131.523 227.71 130.795 228.275 130.188C228.84 129.58 229.536 129.108 230.31 128.808C231.084 128.508 231.916 128.387 232.744 128.454C233.572 128.522 234.374 128.776 235.089 129.197L257.187 140.209C260.506 142.166 260.429 147.231 258.887 151.387L248.156 182.83Z" fill="#6C63FF"/>
<path d="M244.825 185.712C244.059 186.144 243.211 186.411 242.336 186.498C241.461 186.585 240.577 186.489 239.741 186.217L218.476 179.382C216.844 178.85 215.486 177.703 214.691 176.185C213.895 174.666 213.727 172.898 214.22 171.257L224.881 136.349C225.094 135.652 225.445 135.004 225.912 134.443C226.379 133.883 226.954 133.421 227.602 133.085C228.251 132.749 228.96 132.546 229.688 132.487C230.416 132.428 231.148 132.515 231.842 132.743L253.879 139.964C254.929 140.308 255.9 140.859 256.733 141.584C257.566 142.308 258.245 143.192 258.731 144.183C259.216 145.174 259.497 146.252 259.558 147.353C259.619 148.455 259.458 149.557 259.085 150.595L247.686 182.313C247.174 183.753 246.158 184.96 244.825 185.712Z" fill="#3F3D56"/>
<path d="M198.71 130.272C207.122 130.272 213.941 123.466 213.941 115.07C213.941 106.675 207.122 99.8687 198.71 99.8687C190.299 99.8687 183.479 106.675 183.479 115.07C183.479 123.466 190.299 130.272 198.71 130.272Z" fill="#FFB6B6"/>
<path d="M147.206 130.501C148.604 133.205 150.896 135.343 153.693 136.553C154.809 137.06 155.983 137.431 157.188 137.657C157.529 136.308 158.075 135.019 158.806 133.835C158.562 135.17 158.562 136.538 158.806 137.872C160.643 138.022 162.491 137.793 164.235 137.2C165.948 136.618 167.502 135.646 168.773 134.361C170.044 133.076 170.997 131.513 171.557 129.796C172.771 125.766 171.464 121.462 171.361 117.256C171.255 113.05 173.256 108.019 177.44 107.499C180.626 107.102 180.232 107.41 182.522 109.656C179.319 113.207 187.126 128.933 191.316 128.238C193.684 127.845 195.427 125.968 195.896 126.033C198.294 131.896 191.079 140.212 196.802 142.941L196.377 142.381C193.381 137.441 202.245 129.099 199.25 124.16C198.414 122.779 197.546 121.159 198.063 119.63C198.553 118.177 201.037 117.717 201.561 119.04C200.709 116.008 203.087 112.45 206.245 112.14C209.051 111.864 208.889 112.662 211.564 113.39C211.906 112.24 212.398 111.14 213.029 110.119C212.815 111.284 212.789 112.476 212.951 113.649C213.916 113.764 214.892 113.558 215.727 113.063C218.198 111.585 218.271 107.769 216.574 105.447C214.874 103.125 212.026 101.978 209.279 101.11C209.254 95.3115 193.62 92.5355 190.745 97.9268C190.449 93.5615 185.435 90.6209 181.116 91.3625C176.797 92.104 173.39 95.5605 171.313 99.4131C169.236 103.263 168.205 107.573 166.684 111.673C165.164 115.774 162.99 119.862 159.349 122.295C155.709 124.725 150.299 124.946 147.259 121.796C146.566 123.141 146.2 124.63 146.191 126.142C146.181 127.654 146.529 129.148 147.206 130.501Z" fill="#2F2E41"/>
<path d="M162.834 200.016C163.149 199.765 163.491 199.549 163.854 199.372C169.684 196.476 187.813 188.959 201.988 189.268C229.264 189.861 263.975 219.904 255.896 240.079C249.749 255.431 219.189 264.165 196.881 257.18C165.63 247.393 153.294 207.608 162.834 200.016Z" fill="#3F3D56"/>
<path d="M49.6036 310.613C40.6911 308.935 32.802 268.861 50.337 249.124C56.3447 242.362 63.8386 239.419 73.8068 236.68C131.18 220.915 174.94 235.939 180.821 239.608C186.689 243.268 196.975 298.415 183.821 306.221C176.421 310.613 161.752 312.809 154.484 307.685C143.79 300.145 161.74 280.588 153.751 267.424C144.684 252.486 96.9424 247.454 73.0069 262.3C47.4701 278.139 100.144 320.129 49.6036 310.613Z" fill="#F2F2F2"/>
<path d="M109.191 242.478H75.1423C66.7371 234.438 60.7274 226.69 65.5389 220.258C65.5389 218.41 66.2747 216.637 67.5845 215.329C68.8944 214.022 70.6708 213.288 72.5232 213.288H111.81C113.662 213.288 115.439 214.022 116.749 215.329C118.059 216.637 118.794 218.41 118.794 220.258C120.626 227.587 117.354 234.994 109.191 242.478Z" fill="#CCCCCC"/>
<path d="M103.076 204.512C102.753 204.527 102.433 204.442 102.16 204.269C101.887 204.097 101.673 203.844 101.548 203.547C101.424 203.249 101.394 202.92 101.462 202.605C101.531 202.289 101.695 202.003 101.933 201.783L102.041 201.355C102.027 201.32 102.012 201.286 101.998 201.252C101.673 200.484 101.127 199.83 100.43 199.371C99.7337 198.912 98.9166 198.669 98.0819 198.672C97.2471 198.675 96.4318 198.925 95.7385 199.389C95.0452 199.853 94.5047 200.511 94.185 201.281C92.9071 204.352 91.2802 207.429 90.8796 210.677C90.7031 212.113 90.7776 213.568 91.0995 214.978C88.0982 208.444 86.5397 201.342 86.5296 194.153C86.529 192.35 86.6294 190.547 86.8304 188.755C86.9965 187.285 87.227 185.826 87.5217 184.377C89.1304 176.517 92.5843 169.15 97.5997 162.88C100.027 161.558 101.99 159.525 103.225 157.056C103.672 156.168 103.988 155.22 104.163 154.242C103.889 154.278 103.13 150.116 103.337 149.86C102.955 149.282 102.272 148.995 101.855 148.431C99.7826 145.626 96.9268 146.116 95.436 149.927C92.2512 151.532 92.2204 154.192 94.1745 156.751C95.4178 158.379 95.5886 160.582 96.6795 162.325C96.5672 162.468 96.4505 162.607 96.3383 162.75C94.2868 165.383 92.4987 168.21 90.9998 171.191C91.3643 167.852 90.9292 164.474 89.7304 161.335C88.5153 158.409 86.2379 155.945 84.2324 153.416C81.8234 150.378 76.8836 151.704 76.4592 155.555C76.4551 155.592 76.4511 155.63 76.4472 155.667C76.7451 155.834 77.0367 156.013 77.322 156.201C77.6804 156.44 77.9581 156.781 78.1188 157.181C78.2794 157.58 78.3155 158.018 78.2222 158.438C78.129 158.858 77.9108 159.24 77.5962 159.535C77.2817 159.829 76.8854 160.021 76.4594 160.087L76.4158 160.093C76.5219 161.165 76.7095 162.227 76.9769 163.27C74.404 173.201 79.9586 176.818 87.8898 176.98C88.0649 177.07 88.2355 177.159 88.4106 177.244C86.9046 181.504 85.96 185.941 85.6004 190.444C85.3969 193.1 85.4089 195.769 85.6363 198.423L85.6229 198.329C85.0482 195.377 83.4705 192.714 81.1562 190.789C77.7189 187.97 72.8626 186.933 69.1543 184.667C68.7602 184.415 68.3019 184.28 67.8336 184.279C67.3653 184.278 66.9064 184.41 66.5111 184.661C66.1157 184.912 65.8005 185.27 65.6024 185.693C65.4044 186.117 65.3318 186.588 65.3933 187.052C65.3983 187.085 65.4034 187.118 65.4085 187.151C65.9613 187.375 66.4995 187.634 67.0201 187.926C67.318 188.093 67.6096 188.271 67.8949 188.46C68.2533 188.699 68.531 189.04 68.6916 189.44C68.8523 189.839 68.8884 190.277 68.7951 190.697C68.7019 191.117 68.4837 191.499 68.1691 191.793C67.8546 192.088 67.4583 192.28 67.0323 192.346L66.9886 192.352C66.9572 192.357 66.9303 192.361 66.8989 192.366C67.8434 194.617 69.1691 196.688 70.8178 198.49C72.4266 207.16 79.3361 207.982 86.7272 205.458H86.7317C87.5426 208.975 88.7176 212.398 90.2377 215.673H102.762C102.807 215.534 102.847 215.391 102.888 215.252C101.729 215.324 100.565 215.255 99.4223 215.046C100.352 213.908 101.281 212.761 102.21 211.623C102.231 211.601 102.25 211.579 102.268 211.555C102.74 210.973 103.216 210.395 103.687 209.812L103.687 209.812C103.712 208.026 103.507 206.245 103.076 204.512Z" fill="#CCCCCC"/>
<path d="M145.795 240.657C146.003 241.26 146.397 241.783 146.92 242.149C147.444 242.515 148.071 242.706 148.71 242.695L161.201 242.374C161.845 242.361 162.468 242.141 162.976 241.746C163.484 241.351 163.851 240.803 164.021 240.183L165.788 221.318C166.416 221.602 167.098 221.742 167.787 221.728C168.994 221.698 170.141 221.19 170.973 220.316C171.806 219.442 172.257 218.274 172.226 217.069C172.196 215.863 171.687 214.719 170.812 213.888C169.936 213.057 168.766 212.607 167.558 212.638C167.283 212.637 167.008 212.665 166.739 212.723C166.447 212.407 166.091 212.155 165.695 211.985C165.3 211.815 164.872 211.729 164.441 211.733L145.228 212.228C145.068 212.234 144.91 212.254 144.754 212.287C144.332 212.365 143.933 212.533 143.582 212.778C143.231 213.024 142.936 213.342 142.719 213.71C142.501 214.079 142.365 214.489 142.32 214.915C142.274 215.34 142.321 215.77 142.456 216.176L145.795 240.657ZM166.151 220.037L167.409 215.542C167.552 215.023 167.555 214.475 167.418 213.954C167.479 213.954 167.533 213.925 167.594 213.925C168.457 213.907 169.291 214.231 169.914 214.827C170.537 215.422 170.898 216.239 170.918 217.1C170.938 217.96 170.616 218.794 170.021 219.417C169.427 220.041 168.609 220.404 167.747 220.427C167.189 220.444 166.638 220.309 166.151 220.037Z" fill="#CCCCCC"/>
<path d="M144.754 212.287C145.163 214.623 149.765 216.265 155.299 215.98C160.388 215.746 164.549 213.962 165.311 211.849C165.029 211.766 164.736 211.727 164.442 211.733L145.228 212.228C145.068 212.234 144.91 212.254 144.754 212.287Z" fill="white"/>
<path d="M0.668943 311.497L421.331 311.669C421.508 311.669 421.679 311.599 421.804 311.474C421.93 311.349 422 311.179 422 311.002C422 310.825 421.93 310.655 421.804 310.53C421.679 310.404 421.508 310.334 421.331 310.334L0.668943 310.162C0.491528 310.162 0.32138 310.232 0.195929 310.357C0.0704767 310.482 0 310.652 0 310.829C0 311.006 0.0704767 311.176 0.195929 311.301C0.32138 311.427 0.491528 311.497 0.668943 311.497Z" fill="#CACACA"/>
<path d="M236.605 162.283C235.461 162.325 234.379 162.811 233.588 163.637C232.797 164.463 232.361 165.564 232.371 166.707C232.377 166.939 232.402 167.17 232.446 167.398L219.244 175.178L220.842 183.252L237.773 170.644C238.706 170.389 239.529 169.832 240.112 169.061C240.695 168.29 241.006 167.348 240.996 166.382C240.985 165.833 240.866 165.291 240.645 164.787C240.424 164.283 240.106 163.828 239.709 163.447C239.312 163.066 238.844 162.767 238.331 162.567C237.818 162.366 237.271 162.269 236.72 162.28C236.682 162.28 236.644 162.282 236.605 162.283Z" fill="#FFB6B6"/>
<path d="M225.791 180.829C225.438 180.357 225.286 180.159 225.206 180.213C224.999 180.338 225.198 182.006 223.744 184.914C221.697 188.999 200.235 195.255 200.235 195.255L197.593 190.427L185.97 169.209L181.964 152.202C181.824 151.609 181.756 151.001 181.761 150.392C185.333 147.883 189.126 145.704 193.094 143.881C194.679 144.779 195.888 146.216 196.499 147.93L204.499 170.32L207.692 179.259C207.692 179.259 213.324 175.24 215.366 175.977C217.406 176.72 217.986 175.679 216.652 172.347C215.319 169.015 217.32 172.445 219.649 172.663C221.982 172.884 219.649 172.663 220.751 171.249C221.853 169.835 228.979 169.039 228.979 169.039L229.13 169.355L231.892 175.024L232.682 176.653C232.682 176.653 229.755 179.823 229.048 180.454C228.339 181.091 228.119 181.047 228.467 181.772C228.81 182.494 227.017 182.461 225.791 180.829Z" fill="#6C63FF"/>
</g>
<defs>
<clipPath id="clip0_197_200">
<rect width="422" height="312" fill="white"/>
</clipPath>
</defs>
</svg>
