<svg width="488" height="451" viewBox="0 0 488 451" fill="none" xmlns="http://www.w3.org/2000/svg">
<g clip-path="url(#clip0_197_141)">
<path d="M444.591 361.323L404.978 302.478C404.978 302.478 464.97 323.422 458.161 361.323H444.591Z" fill="#E5E5E5"/>
<path d="M33.9589 361.713L32.4551 361.683C33.0367 344.961 34.8208 328.303 37.7935 311.837C44.2964 276.584 55.1098 253.432 69.9332 243.023L70.7967 244.254C36.1692 268.568 33.9765 360.784 33.9589 361.713Z" fill="#E5E5E5"/>
<path d="M52.7568 361.353L51.2529 361.324C51.2853 359.658 52.2252 320.406 67.6771 309.557L68.5406 310.787C53.7121 321.199 52.7641 360.953 52.7568 361.353Z" fill="#E5E5E5"/>
<path d="M79.3523 244.391C83.5051 244.391 86.8715 241.024 86.8715 236.871C86.8715 232.718 83.5051 229.352 79.3523 229.352C75.1995 229.352 71.833 232.718 71.833 236.871C71.833 241.024 75.1995 244.391 79.3523 244.391Z" fill="#6C63FF"/>
<path d="M75.6286 309.06C79.7814 309.06 83.1479 305.694 83.1479 301.541C83.1479 297.388 79.7814 294.021 75.6286 294.021C71.4759 294.021 68.1094 297.388 68.1094 301.541C68.1094 305.694 71.4759 309.06 75.6286 309.06Z" fill="#6C63FF"/>
<path d="M49.2518 248.899C50.6649 257.925 46.9818 265.999 46.9818 265.999C46.9818 265.999 41.0075 259.437 39.5944 250.411C38.1812 241.384 41.8643 233.311 41.8643 233.311C41.8643 233.311 47.8386 239.872 49.2518 248.899Z" fill="#E5E5E5"/>
<path d="M73.8299 270.822C65.188 273.786 56.5967 271.566 56.5967 271.566C56.5967 271.566 62.0165 264.539 70.6583 261.575C79.3002 258.61 87.8916 260.831 87.8916 260.831C87.8916 260.831 82.4717 267.857 73.8299 270.822Z" fill="#E5E5E5"/>
<path d="M74.1084 328.092C70.1972 329.321 66.0319 329.501 62.0293 328.614C64.5707 325.378 67.9936 322.946 71.8854 321.611C75.7772 320.276 79.9721 320.095 83.9645 321.09C81.3489 324.247 77.9502 326.662 74.1084 328.092Z" fill="#E5E5E5"/>
<path d="M487.248 362.826H0.751926C0.552503 362.826 0.361258 362.747 0.220245 362.606C0.0792315 362.465 0 362.274 0 362.074C0 361.875 0.0792315 361.683 0.220245 361.542C0.361258 361.401 0.552503 361.322 0.751926 361.322H487.248C487.448 361.322 487.639 361.401 487.78 361.542C487.921 361.683 488 361.875 488 362.074C488 362.274 487.921 362.465 487.78 362.606C487.639 362.747 487.448 362.826 487.248 362.826Z" fill="#CBCBCB"/>
<path d="M308.133 397.492L301.982 413.504L237.298 397.394L246.377 373.762L308.133 397.492Z" fill="#FFB7B7"/>
<path d="M325.222 399.371L305.387 451L304.734 450.749C299.405 448.701 295.107 444.62 292.786 439.404C290.466 434.188 290.312 428.263 292.359 422.933L292.36 422.932L304.474 391.399L325.222 399.371Z" fill="#2F2E41"/>
<path d="M209.844 197.01L181.655 199.649L180.257 283.526C180.631 287.636 182.599 291.437 185.741 294.114C188.882 296.791 192.947 298.131 197.065 297.847L214.937 296.616L209.844 197.01Z" fill="#E5E5E5"/>
<path d="M309.22 192.882L289.933 192.633L288.79 292.296C293.052 292.438 297.298 291.701 301.262 290.129C305.227 288.558 308.825 286.186 311.832 283.163C314.84 280.139 317.192 276.528 318.742 272.555C320.292 268.582 321.007 264.332 320.842 260.071L309.22 192.882Z" fill="#E5E5E5"/>
<path d="M197.306 327.701C196.85 330.592 196.187 333.447 195.322 336.243C194.349 338.98 192.846 341.511 191.957 344.276C189.12 353.09 193.052 362.918 199.333 369.721C204.779 375.597 211.81 379.772 219.576 381.742C225.242 383.167 231.133 383.372 236.972 383.57C253.14 384.118 269.725 384.609 285.045 379.412C289.886 377.73 294.561 375.606 299.012 373.067C300.417 372.397 301.655 371.423 302.636 370.213C303.804 368.55 303.954 366.392 303.944 364.359C303.909 357.504 302.52 350.685 302.85 343.838C303.032 340.046 303.742 336.256 303.393 332.475C302.909 328.182 301.111 324.142 298.243 320.91C295.376 317.678 291.579 315.411 287.374 314.419C283.028 313.486 278.52 313.994 274.095 314.42C262.61 315.524 251.075 316.039 239.537 315.965C227.748 315.89 216.032 314.09 204.301 313.902C200.832 313.847 200.902 314.916 199.798 318.274C198.781 321.364 197.949 324.512 197.306 327.701Z" fill="#2F2E41"/>
<path d="M151.206 322.13C148.036 321.334 144.769 320.986 141.503 321.099C138.07 321.289 134.717 322.207 131.667 323.793C128.617 325.379 125.94 327.596 123.813 330.296C121.686 332.997 120.159 336.12 119.332 339.457C118.505 342.794 118.398 346.269 119.018 349.65C119.81 353.313 121.104 356.849 122.863 360.157C125.437 365.38 128.523 370.591 133.287 373.937C136.074 375.895 139.299 377.116 142.486 378.317L167.577 387.769C171.268 389.16 174.96 390.551 178.688 391.84C197.415 398.314 216.94 402.195 236.719 403.378C242.744 403.736 248.86 403.836 254.737 402.464C256.132 402.139 257.62 401.654 258.427 400.471C258.906 399.637 259.188 398.706 259.252 397.747L260.796 386.938C261.013 385.416 261.222 383.814 260.665 382.381C259.957 380.565 258.184 379.422 256.494 378.451C239.999 368.976 220.738 363.749 206.854 350.745C203.585 347.684 200.85 342.832 196.878 340.752C192.375 338.394 187.071 337.048 182.416 334.875C172.24 330.125 162.235 324.666 151.206 322.13Z" fill="#2F2E41"/>
<path opacity="0.1" d="M176.256 336.703C185.124 339.482 222.567 358.735 228.985 365.458C228.125 365.768 198.938 349.41 198.062 349.147C190.101 346.758 182.095 344.352 174.535 340.856C173.014 340.152 164.654 336.846 165.033 334.927C165.46 332.761 174.681 336.209 176.256 336.703Z" fill="black"/>
<path d="M229.779 168.818L205.901 186.95C205.901 186.95 180.705 187.738 181.556 203.845C182.408 219.953 192.492 296.215 192.492 296.215L194.68 322.455L236.181 334.281C258.604 340.671 282.295 341.179 304.972 335.756L300.04 309.431C300.04 309.431 320.01 189.874 307.979 184.61C295.948 179.346 288.429 180.85 288.429 180.85L273.349 167.69L229.779 168.818Z" fill="#E5E5E5"/>
<path d="M300.46 139.532C300.46 163.069 278.697 159.509 251.851 159.509C225.005 159.509 203.242 163.069 203.242 139.532C203.242 115.994 213.873 74.2725 251.851 74.2725C291.137 74.2725 300.46 115.994 300.46 139.532Z" fill="#2F2E41"/>
<path d="M277.119 147.509C289.893 134.734 289.893 114.023 277.119 101.248C264.345 88.4739 243.635 88.4739 230.861 101.248C218.088 114.023 218.088 134.734 230.861 147.509C243.635 160.283 264.345 160.283 277.119 147.509Z" fill="#FFB7B7"/>
<path d="M213.896 123.55H226.834L232.541 107.568L233.682 123.55H239.866L243.195 114.227L243.861 123.55H289.806C289.806 114.366 286.158 105.558 279.665 99.0645C273.171 92.5706 264.364 88.9224 255.181 88.9224H248.522C239.339 88.9224 230.532 92.5706 224.038 99.0645C217.545 105.558 213.896 114.366 213.896 123.55Z" fill="#2F2E41"/>
<path d="M284.67 172.578H219.252V251.535H284.67V172.578Z" fill="#6C63FF"/>
<path d="M222.856 396.74L229.009 412.752L293.692 396.642L284.613 373.01L222.856 396.74Z" fill="#FFB7B7"/>
<path d="M226.515 390.647L238.63 422.18L238.63 422.181C240.677 427.511 240.524 433.436 238.203 438.652C235.882 443.868 231.585 447.949 226.256 449.997L225.603 450.248L205.768 398.619L226.515 390.647Z" fill="#2F2E41"/>
<path d="M352.153 316.001C357.349 314.698 362.736 314.33 368.061 314.914C372.314 315.383 376.696 316.566 379.801 319.51C383.58 323.093 384.795 328.635 384.896 333.842C385.062 344.213 381.623 354.32 375.165 362.437C373.588 364.49 371.712 366.295 369.601 367.793C367.324 369.218 364.896 370.388 362.363 371.282L306.173 393.446C291.39 399.277 276.556 405.124 261.137 408.968C260.299 409.373 259.334 409.428 258.455 409.122C257.576 408.815 256.855 408.172 256.451 407.333C256.438 407.308 256.426 407.282 256.414 407.256C251.491 400.223 247.361 392.668 244.099 384.727C243.945 384.538 243.838 384.315 243.788 384.076C243.738 383.838 243.746 383.59 243.812 383.356C243.878 383.121 243.999 382.905 244.166 382.727C244.333 382.549 244.54 382.414 244.77 382.333L284.514 359.497C287.36 357.861 290.239 356.201 292.603 353.923C294.32 352.258 295.727 350.3 296.756 348.14C297.58 346.42 297.657 342.359 298.709 341.087C299.739 339.842 303.264 339.742 304.891 339.252C307.187 338.549 309.435 337.699 311.622 336.708C320.512 332.73 328.429 326.951 336.951 322.294C341.731 319.561 346.839 317.446 352.153 316.001Z" fill="#2F2E41"/>
<path opacity="0.1" d="M329.622 333.056C322.794 338.185 313.952 342.899 307.185 348.163C304.875 349.959 266.373 371.607 265.829 374.482C272.143 375.545 312.361 347.408 318.115 344.601C323.869 341.793 328.97 337.834 334.024 333.904C335.312 332.902 340.771 329.891 337.074 328.772C334.991 328.142 331.159 332.031 329.622 333.056Z" fill="black"/>
<path d="M452.349 135.14C465.325 135.14 475.845 124.62 475.845 111.643C475.845 98.6657 465.325 88.1455 452.349 88.1455C439.372 88.1455 428.853 98.6657 428.853 111.643C428.853 124.62 439.372 135.14 452.349 135.14Z" fill="#F1F1F1"/>
<path d="M408.863 139.349C417.966 139.349 425.346 131.969 425.346 122.866C425.346 113.762 417.966 106.382 408.863 106.382C399.76 106.382 392.381 113.762 392.381 122.866C392.381 131.969 399.76 139.349 408.863 139.349Z" fill="#F1F1F1"/>
<path d="M106.934 128.596C114.233 128.596 120.15 122.679 120.15 115.38C120.15 108.08 114.233 102.163 106.934 102.163C99.6347 102.163 93.7178 108.08 93.7178 115.38C93.7178 122.679 99.6347 128.596 106.934 128.596Z" fill="#F1F1F1"/>
<path d="M128.693 137.484C133.813 137.484 137.964 133.333 137.964 128.212C137.964 123.092 133.813 118.941 128.693 118.941C123.573 118.941 119.422 123.092 119.422 128.212C119.422 133.333 123.573 137.484 128.693 137.484Z" fill="#F1F1F1"/>
<path d="M256.898 20.2058C262.478 20.2058 267.001 15.6826 267.001 10.1029C267.001 4.52322 262.478 0 256.898 0C251.319 0 246.796 4.52322 246.796 10.1029C246.796 15.6826 251.319 20.2058 256.898 20.2058Z" fill="#F1F1F1"/>
<path opacity="0.17" d="M196.693 222.96L197.596 215.989C197.596 215.989 231.282 218.448 226.018 226.72C220.755 234.992 207.972 235.744 207.972 235.744L196.693 222.96Z" fill="#2F2E41"/>
<path d="M222.121 192.65C224.051 192.862 225.909 193.499 227.564 194.515C229.218 195.531 230.627 196.901 231.689 198.525C232.657 200.008 233.316 201.671 233.625 203.415C233.934 205.158 233.888 206.946 233.489 208.671C233.09 210.396 232.346 212.023 231.302 213.454C230.259 214.884 228.937 216.089 227.416 216.996C226.858 217.325 226.276 217.611 225.675 217.852L204.97 281.188C204.37 282.438 203.529 283.557 202.495 284.48C201.461 285.404 200.255 286.114 198.946 286.57C197.637 287.026 196.25 287.218 194.867 287.137C193.483 287.055 192.129 286.701 190.882 286.094C189.636 285.487 188.522 284.64 187.604 283.601C186.686 282.562 185.983 281.352 185.534 280.04C185.085 278.729 184.9 277.341 184.99 275.958C185.079 274.574 185.441 273.222 186.054 271.979L208.074 209.346C207.474 207.273 207.394 205.085 207.841 202.975C208.289 200.864 209.249 198.897 210.638 197.246C212.027 195.595 213.802 194.312 215.804 193.51C217.807 192.709 219.977 192.413 222.121 192.65Z" fill="#FFB7B7"/>
<path d="M197.003 216.583C197.003 216.583 208.867 236.854 226.019 226.72L209.396 290.335H195.391L180.903 287.629L184.96 261.346L197.003 216.583Z" fill="#E5E5E5"/>
<path d="M281.715 230.439L271.887 216.945C271.887 216.945 276.61 202.948 294.927 208.067C294.927 208.067 306.582 234.157 281.715 230.439Z" fill="#E5E5E5"/>
<path opacity="0.17" d="M281.715 230.439L271.887 216.945C271.887 216.945 276.61 202.948 294.927 208.067C294.927 208.067 306.582 234.157 281.715 230.439Z" fill="#2F2E41"/>
<path d="M284.317 183.293C287.153 184.611 289.421 186.903 290.709 189.753C291.997 192.602 292.22 195.819 291.336 198.818L313.355 261.452C313.969 262.695 314.331 264.047 314.42 265.431C314.51 266.814 314.325 268.202 313.876 269.513C313.428 270.825 312.724 272.035 311.806 273.074C310.888 274.113 309.774 274.96 308.528 275.567C307.281 276.174 305.927 276.528 304.543 276.61C303.159 276.692 301.773 276.499 300.464 276.043C299.155 275.587 297.949 274.877 296.915 273.953C295.881 273.03 295.04 271.911 294.44 270.661L273.735 207.324C273.134 207.084 272.551 206.798 271.994 206.468C270.473 205.562 269.151 204.357 268.107 202.926C267.064 201.496 266.32 199.869 265.921 198.144C265.522 196.419 265.476 194.631 265.785 192.887C266.094 191.144 266.753 189.481 267.721 187.998C268.783 186.373 270.192 185.004 271.846 183.988C273.501 182.972 275.359 182.335 277.289 182.123C279.695 181.85 282.129 182.255 284.317 183.293Z" fill="#FFB7B7"/>
<path d="M271.887 216.945C271.887 216.945 288.102 226.784 294.927 208.066L317.777 268.234L310.987 280.11L310.005 280.192C305.954 280.529 301.882 279.879 298.139 278.296C294.395 276.713 291.092 274.245 288.512 271.103C283.251 264.696 279.669 257.078 278.091 248.939L271.887 216.945Z" fill="#E5E5E5"/>
</g>
<defs>
<clipPath id="clip0_197_141">
<rect width="488" height="451" fill="white"/>
</clipPath>
</defs>
</svg>
