<svg width="30" height="29" viewBox="0 0 30 29" fill="none" xmlns="http://www.w3.org/2000/svg">
<path d="M12.2552 25.872H17.7019C17.7019 26.5943 17.415 27.287 16.9043 27.7977C16.3935 28.3085 15.7008 28.5954 14.9785 28.5954C14.2563 28.5954 13.5636 28.3085 13.0528 27.7977C12.5421 27.287 12.2552 26.5943 12.2552 25.872ZM27.2337 23.1487V24.5103H2.72337V23.1487L5.44674 20.4253V12.2552C5.44674 8.03394 8.21096 4.31654 12.2552 3.11826C12.2552 2.98209 12.2552 2.85954 12.2552 2.72337C12.2552 2.00109 12.5421 1.30839 13.0528 0.797657C13.5636 0.286926 14.2563 0 14.9785 0C15.7008 0 16.3935 0.286926 16.9043 0.797657C17.415 1.30839 17.7019 2.00109 17.7019 2.72337V3.11826C21.7461 4.31654 24.5103 8.03394 24.5103 12.2552V20.4253L27.2337 23.1487ZM21.787 12.2552C21.787 10.4495 21.0697 8.71771 19.7928 7.44088C18.516 6.16406 16.7842 5.44674 14.9785 5.44674C13.1728 5.44674 11.4411 6.16406 10.1643 7.44088C8.88743 8.71771 8.17011 10.4495 8.17011 12.2552V21.787H21.787V12.2552ZM25.5316 1.62041L23.598 3.554C25.9265 5.85525 27.2337 8.98712 27.2337 12.2552H29.9571C29.9571 8.26543 28.3775 4.42548 25.5316 1.62041ZM0 12.2552H2.72337C2.72337 8.98712 4.03059 5.85525 6.35907 3.554L4.42548 1.62041C1.57956 4.42548 0 8.26543 0 12.2552Z" fill="white"/>
</svg>
