<svg width="18" height="19" viewBox="0 0 18 19" fill="none" xmlns="http://www.w3.org/2000/svg">
<path fill-rule="evenodd" clip-rule="evenodd" d="M6.98669 4.71404L11.9523 1.77197L13.6116 4.72143L6.98669 4.71404Z" stroke="black" stroke-linecap="round" stroke-linejoin="round"/>
<path d="M1.95654 5.46397C1.95654 5.05616 2.27868 4.72559 2.67605 4.72559H15.6272C16.0246 4.72559 16.3468 5.05616 16.3468 5.46397V15.8014C16.3468 16.2092 16.0246 16.5398 15.6272 16.5398H2.67605C2.27868 16.5398 1.95654 16.2092 1.95654 15.8014V5.46397Z" fill="#428749" stroke="black" stroke-linejoin="round"/>
<path d="M13.1989 12.4788H16.3468V8.78687H13.1989C12.1558 8.78687 11.3102 9.61334 11.3102 10.6328C11.3102 11.6523 12.1558 12.4788 13.1989 12.4788Z" fill="black" stroke="white" stroke-linejoin="round"/>
<path d="M16.3468 6.38696V15.2476" stroke="black" stroke-linecap="round"/>
</svg>
