<svg width="317" height="272" viewBox="0 0 317 272" fill="none" xmlns="http://www.w3.org/2000/svg">
<g clip-path="url(#clip0_360_2341)">
<path d="M23.8039 249.612C25.6306 250.254 27.5918 250.415 29.4986 250.079C31.4055 249.743 33.1937 248.922 34.691 247.694C38.5041 244.494 39.6999 239.223 40.6724 234.341L43.5497 219.9L37.5259 224.048C33.1936 227.03 28.7641 230.109 25.7647 234.429C22.7654 238.749 21.4569 244.647 23.866 249.322" fill="#E6E6E6"/>
<path d="M24.7341 268.1C23.9759 262.576 23.1958 256.982 23.7289 251.399C24.2013 246.441 25.7141 241.599 28.7939 237.628C30.4286 235.524 32.4178 233.722 34.6719 232.301C35.2596 231.931 35.8006 232.862 35.2155 233.231C31.315 235.696 28.2981 239.336 26.5997 243.625C24.724 248.396 24.4228 253.596 24.7459 258.663C24.9412 261.728 25.3562 264.772 25.773 267.813C25.8059 267.95 25.7854 268.095 25.7155 268.218C25.6457 268.341 25.5318 268.433 25.3968 268.475C25.2591 268.512 25.1123 268.494 24.9883 268.423C24.8643 268.353 24.7731 268.236 24.7345 268.099L24.7341 268.1Z" fill="#F2F2F2"/>
<path d="M30.1914 259.237C30.9747 260.428 32.0515 261.397 33.3181 262.051C34.5847 262.705 35.9983 263.021 37.4229 262.97C41.0845 262.797 44.1359 260.242 46.8826 257.816L55.0083 250.643L49.6306 250.385C45.7632 250.2 41.7961 250.026 38.1125 251.22C34.4289 252.414 31.0318 255.283 30.3583 259.095" fill="#E6E6E6"/>
<path d="M22.5909 271.275C26.2411 264.817 30.4746 257.639 38.04 255.345C40.1433 254.709 42.3488 254.482 44.5377 254.674C45.2276 254.734 45.0553 255.797 44.3668 255.738C40.6976 255.433 37.0355 256.402 33.997 258.481C31.0731 260.471 28.7964 263.238 26.8697 266.172C25.6893 267.969 24.6321 269.842 23.5749 271.713C23.2371 272.311 22.2492 271.88 22.5909 271.275Z" fill="#F2F2F2"/>
<path d="M314.661 191.55H113.421C112.801 191.549 112.206 191.303 111.768 190.864C111.329 190.426 111.083 189.831 111.082 189.211V2.33882C111.083 1.71878 111.329 1.12436 111.768 0.685921C112.206 0.247482 112.801 0.000810555 113.421 0H314.661C315.281 0.000810555 315.876 0.247482 316.314 0.685921C316.752 1.12436 316.999 1.71878 317 2.33882V189.211C316.999 189.831 316.753 190.425 316.314 190.864C315.876 191.302 315.281 191.549 314.661 191.55Z" fill="white"/>
<path d="M314.661 191.55H113.421C112.801 191.549 112.206 191.303 111.768 190.864C111.329 190.426 111.083 189.831 111.082 189.211V2.33882C111.083 1.71878 111.329 1.12436 111.768 0.685921C112.206 0.247482 112.801 0.000810555 113.421 0H314.661C315.281 0.000810555 315.876 0.247482 316.314 0.685921C316.752 1.12436 316.999 1.71878 317 2.33882V189.211C316.999 189.831 316.753 190.425 316.314 190.864C315.876 191.302 315.281 191.549 314.661 191.55ZM113.421 0.933687C113.049 0.934494 112.693 1.08247 112.43 1.34524C112.167 1.608 112.019 1.96415 112.019 2.33576V189.211C112.019 189.582 112.167 189.939 112.43 190.201C112.693 190.464 113.049 190.612 113.421 190.613H314.661C315.033 190.612 315.389 190.464 315.652 190.201C315.914 189.939 316.062 189.582 316.063 189.211V2.33882C316.062 1.96722 315.914 1.61107 315.652 1.34831C315.389 1.08554 315.033 0.937563 314.661 0.936756L113.421 0.933687Z" fill="#CACACA"/>
<path d="M208.511 48.5596C208.09 48.5603 207.687 48.7279 207.389 49.0256C207.092 49.3233 206.925 49.7268 206.925 50.1474C206.925 50.5681 207.092 50.9715 207.389 51.2692C207.687 51.5669 208.09 51.7345 208.511 51.7352H295.645C296.065 51.7345 296.469 51.5669 296.766 51.2692C297.063 50.9715 297.23 50.5681 297.23 50.1474C297.23 49.7268 297.063 49.3233 296.766 49.0256C296.469 48.7279 296.065 48.5603 295.645 48.5596H208.511Z" fill="#E4E4E4"/>
<path d="M208.51 58.0874C208.09 58.0884 207.687 58.2562 207.39 58.5538C207.093 58.8515 206.926 59.2548 206.926 59.6752C206.926 60.0957 207.093 60.499 207.39 60.7967C207.687 61.0943 208.09 61.2621 208.51 61.2631H252.994C253.415 61.2621 253.818 61.0943 254.114 60.7967C254.411 60.499 254.578 60.0957 254.578 59.6752C254.578 59.2548 254.411 58.8515 254.114 58.5538C253.818 58.2562 253.415 58.0884 252.994 58.0874H208.51Z" fill="#E4E4E4"/>
<path d="M132.352 109.325C131.932 109.326 131.529 109.494 131.232 109.792C130.935 110.089 130.768 110.493 130.768 110.913C130.768 111.333 130.935 111.737 131.232 112.034C131.529 112.332 131.932 112.5 132.352 112.501H295.729C296.15 112.5 296.553 112.332 296.85 112.034C297.147 111.737 297.313 111.333 297.313 110.913C297.313 110.493 297.147 110.089 296.85 109.792C296.553 109.494 296.15 109.326 295.729 109.325H132.352Z" fill="#E4E4E4"/>
<path d="M132.352 118.853C131.932 118.854 131.529 119.022 131.232 119.319C130.935 119.617 130.768 120.02 130.768 120.441C130.768 120.861 130.935 121.265 131.232 121.562C131.529 121.86 131.932 122.028 132.352 122.029H253.079C253.499 122.028 253.902 121.86 254.199 121.562C254.496 121.265 254.663 120.861 254.663 120.441C254.663 120.02 254.496 119.617 254.199 119.319C253.902 119.022 253.499 118.854 253.079 118.853H132.352Z" fill="#E4E4E4"/>
<path d="M132.352 128.166C131.932 128.167 131.529 128.334 131.232 128.632C130.935 128.93 130.768 129.333 130.768 129.753C130.768 130.174 130.935 130.577 131.232 130.875C131.529 131.172 131.932 131.34 132.352 131.341H295.729C296.15 131.34 296.553 131.172 296.85 130.875C297.147 130.577 297.313 130.174 297.313 129.753C297.313 129.333 297.147 128.93 296.85 128.632C296.553 128.334 296.15 128.167 295.729 128.166H132.352Z" fill="#E4E4E4"/>
<path d="M132.352 137.693C131.932 137.694 131.529 137.862 131.232 138.16C130.935 138.457 130.768 138.861 130.768 139.281C130.768 139.702 130.935 140.105 131.232 140.403C131.529 140.7 131.932 140.868 132.352 140.869H253.079C253.499 140.868 253.902 140.7 254.199 140.403C254.496 140.105 254.663 139.702 254.663 139.281C254.663 138.861 254.496 138.457 254.199 138.16C253.902 137.862 253.499 137.694 253.079 137.693H132.352Z" fill="#E4E4E4"/>
<path d="M132.352 147.253C131.932 147.254 131.529 147.422 131.232 147.72C130.935 148.018 130.768 148.421 130.768 148.841C130.768 149.262 130.935 149.665 131.232 149.963C131.529 150.26 131.932 150.428 132.352 150.429H295.729C296.15 150.428 296.553 150.26 296.85 149.963C297.147 149.665 297.313 149.262 297.313 148.841C297.313 148.421 297.147 148.018 296.85 147.72C296.553 147.422 296.15 147.254 295.729 147.253H132.352Z" fill="#E4E4E4"/>
<path d="M132.352 156.782C131.932 156.783 131.529 156.95 131.232 157.248C130.935 157.546 130.768 157.949 130.768 158.37C130.768 158.79 130.935 159.193 131.232 159.491C131.529 159.789 131.932 159.956 132.352 159.957H253.079C253.499 159.956 253.902 159.789 254.199 159.491C254.496 159.193 254.663 158.79 254.663 158.37C254.663 157.949 254.496 157.546 254.199 157.248C253.902 156.95 253.499 156.783 253.079 156.782H132.352Z" fill="#E4E4E4"/>
<path d="M158.23 77.7239C153.717 77.7239 149.306 76.386 145.555 73.8793C141.803 71.3726 138.878 67.8098 137.152 63.6413C135.425 59.4728 134.973 54.8858 135.853 50.4606C136.734 46.0353 138.906 41.9704 142.097 38.78C145.288 35.5895 149.353 33.4168 153.778 32.5365C158.204 31.6563 162.791 32.108 166.96 33.8347C171.129 35.5613 174.692 38.4853 177.199 42.2368C179.706 45.9884 181.044 50.399 181.044 54.911C181.037 60.9592 178.631 66.7577 174.354 71.0345C170.077 75.3112 164.278 77.7169 158.23 77.7239Z" fill="#6C63FF"/>
<path d="M88.9755 163.981C88.936 163.148 88.7145 162.335 88.3264 161.597C87.9384 160.859 87.3933 160.215 86.7295 159.711C86.0657 159.206 85.2994 158.854 84.4846 158.678C83.6697 158.501 82.8262 158.506 82.0133 158.691L74.4722 148.064L66.8962 151.072L77.7565 165.929C78.158 167.274 79.0388 168.425 80.2322 169.164C81.4255 169.903 82.8484 170.178 84.2313 169.938C85.6142 169.698 86.861 168.959 87.7353 167.861C88.6097 166.763 89.051 165.383 88.9755 163.981Z" fill="#A0616A"/>
<path d="M74.2782 163.194L51.4601 133.594L60.0098 106.725C60.6364 99.9702 64.8637 98.0839 65.0436 98.0069L65.318 97.8892L72.7579 117.728L67.2953 132.294L80.7031 154.842L74.2782 163.194Z" fill="#3F3D56"/>
<path d="M153.522 71.9472C152.695 72.0509 151.9 72.3348 151.195 72.7787C150.489 73.2226 149.889 73.8158 149.438 74.5165C148.986 75.2173 148.694 76.0085 148.581 76.8344C148.468 77.6604 148.538 78.501 148.786 79.297L138.773 87.6366L142.357 94.9569L156.332 82.9812C157.641 82.477 158.721 81.5099 159.365 80.263C160.01 79.0162 160.174 77.5764 159.828 76.2163C159.482 74.8562 158.648 73.6704 157.486 72.8836C156.324 72.0968 154.913 71.7636 153.522 71.9472Z" fill="#A0616A"/>
<path d="M153.873 86.6604L126.124 111.697L98.6726 105.251C91.8888 105.149 89.6812 101.08 89.5905 100.907L89.4519 100.642L108.657 91.6913L123.603 96.011L145.049 80.9009L153.873 86.6604Z" fill="#3F3D56"/>
<path d="M105.807 264.646L113.263 264.646L116.809 235.891L105.806 235.891L105.807 264.646Z" fill="#A0616A"/>
<path d="M127.642 271.568L104.21 271.569L104.209 262.516L121.067 262.516C122.811 262.515 124.483 263.208 125.716 264.441C126.949 265.673 127.642 267.345 127.642 269.089L127.642 271.568Z" fill="#2F2E41"/>
<path d="M76.0082 264.646L83.4639 264.646L87.0108 235.891L76.0073 235.891L76.0082 264.646Z" fill="#A0616A"/>
<path d="M97.8429 271.568L74.4109 271.569L74.4105 262.516L91.2686 262.516C92.1319 262.515 92.9867 262.685 93.7843 263.016C94.5819 263.346 95.3067 263.83 95.9171 264.441C96.5276 265.051 97.0119 265.776 97.3423 266.573C97.6727 267.371 97.8427 268.225 97.8428 269.089L97.8429 271.568Z" fill="#2F2E41"/>
<path d="M73.3566 159.686L73.9646 202.252L74.5732 258.197L87.9518 256.98L94.6416 179.753L103.156 256.98H116.968L118.359 179.145L113.494 162.118L73.3566 159.686Z" fill="#2F2E41"/>
<path d="M99.5427 165.402C84.9855 165.403 71.5858 158.815 71.4049 158.724L71.2546 158.649L70.033 129.334C69.6788 128.298 62.7032 107.857 61.5218 101.36C60.3248 94.7773 77.6728 89.0002 79.7794 88.3246L80.2575 83.0292L99.6981 80.9346L102.162 87.7103L109.137 90.3253C109.927 90.622 110.582 91.1984 110.976 91.9453C111.37 92.6922 111.476 93.5576 111.275 94.3777L107.398 110.14L116.866 162.29L114.827 162.378C109.942 164.584 104.669 165.402 99.5427 165.402Z" fill="#3F3D56"/>
<path d="M97.4527 75.8657C104.236 72.158 106.729 63.6539 103.021 56.8712C99.3127 50.0886 90.8079 47.5959 84.0248 51.3036C77.2417 55.0114 74.7488 63.5155 78.4568 70.2982C82.1648 77.0808 90.6696 79.5735 97.4527 75.8657Z" fill="#A0616A"/>
<path d="M79.4019 77.1342C82.0695 79.9755 87.0235 78.4502 87.371 74.5686C87.3983 74.2672 87.3963 73.9639 87.3652 73.6629C87.1857 71.9436 86.1923 70.3825 86.4302 68.5671C86.4841 68.1153 86.6524 67.6847 86.9193 67.3161C89.045 64.4698 94.0349 68.5892 96.0411 66.0125C97.2712 64.4326 95.8252 61.945 96.7692 60.1792C98.0151 57.8485 101.705 58.9982 104.02 57.7218C106.595 56.3017 106.441 52.3514 104.746 49.9487C102.679 47.0184 99.0543 45.4548 95.4752 45.2295C91.8962 45.0041 88.3418 45.9716 85.0004 47.2736C81.2039 48.7531 77.4392 50.7976 75.1029 54.1356C72.2617 58.195 71.9883 63.6525 73.4092 68.3992C74.2736 71.2866 77.2236 74.8139 79.4019 77.1342Z" fill="#2F2E41"/>
<path d="M177.86 271.929H0.465602C0.342117 271.929 0.223682 271.88 0.136364 271.792C0.0490469 271.705 0 271.587 0 271.463C0 271.34 0.0490469 271.221 0.136364 271.134C0.223682 271.047 0.342117 270.998 0.465602 270.998H177.86C177.984 270.998 178.102 271.047 178.189 271.134C178.277 271.221 178.326 271.34 178.326 271.463C178.326 271.587 178.277 271.705 178.189 271.792C178.102 271.88 177.984 271.929 177.86 271.929Z" fill="#CACACA"/>
<path d="M156.912 63.5274C156.501 63.5279 156.105 63.3722 155.803 63.0918L148.281 56.1049C147.964 55.8107 147.778 55.403 147.762 54.9714C147.747 54.5398 147.903 54.1196 148.197 53.8032C148.491 53.4867 148.898 53.2999 149.33 53.2838C149.761 53.2676 150.182 53.4235 150.499 53.717L156.871 59.6353L169.478 47.0295C169.629 46.8772 169.808 46.7563 170.006 46.6737C170.204 46.591 170.417 46.5483 170.631 46.5479C170.846 46.5475 171.058 46.5894 171.257 46.6713C171.455 46.7533 171.635 46.8735 171.787 47.0252C171.938 47.1769 172.059 47.3571 172.14 47.5554C172.222 47.7537 172.264 47.9661 172.264 48.1807C172.263 48.3952 172.221 48.6075 172.138 48.8055C172.055 49.0034 171.934 49.1831 171.782 49.3341L158.065 63.0502C157.914 63.2017 157.734 63.3218 157.536 63.4037C157.338 63.4856 157.126 63.5276 156.912 63.5274Z" fill="white"/>
</g>
<defs>
<clipPath id="clip0_360_2341">
<rect width="317" height="272" fill="white"/>
</clipPath>
</defs>
</svg>
