<svg width="920" height="80" viewBox="0 0 920 80" fill="none" xmlns="http://www.w3.org/2000/svg">
<rect x="0.5" y="0.5" width="919" height="79" rx="8.16" fill="#FAFAFA" fill-opacity="0.7"/>
<rect x="0.5" y="0.5" width="919" height="79" rx="8.16" stroke="#9E9E9E" stroke-dasharray="10 10"/>
<path d="M292.398 33.9925V32.0909H301.357V33.9925H298.018V43H295.738V33.9925H292.398ZM305.332 43.1598C304.491 43.1598 303.766 42.9893 303.159 42.6484C302.555 42.304 302.09 41.8175 301.764 41.1889C301.437 40.5568 301.274 39.8093 301.274 38.9464C301.274 38.1048 301.437 37.3661 301.764 36.7305C302.09 36.0948 302.55 35.5994 303.143 35.2443C303.74 34.8892 304.439 34.7116 305.242 34.7116C305.782 34.7116 306.284 34.7987 306.749 34.9727C307.218 35.1431 307.627 35.4006 307.975 35.745C308.326 36.0895 308.6 36.5227 308.795 37.0447C308.99 37.5632 309.088 38.1705 309.088 38.8665V39.4897H302.179V38.0835H306.952C306.952 37.7567 306.881 37.4673 306.739 37.2152C306.597 36.9631 306.4 36.766 306.147 36.6239C305.899 36.4783 305.609 36.4055 305.279 36.4055C304.935 36.4055 304.629 36.4854 304.363 36.6452C304.1 36.8015 303.894 37.0128 303.745 37.2791C303.596 37.5419 303.52 37.8349 303.516 38.158V39.495C303.516 39.8999 303.591 40.2496 303.74 40.5444C303.892 40.8391 304.107 41.0664 304.384 41.2262C304.661 41.386 304.99 41.4659 305.37 41.4659C305.622 41.4659 305.853 41.4304 306.062 41.3594C306.272 41.2884 306.451 41.1818 306.6 41.0398C306.749 40.8977 306.863 40.7237 306.941 40.5178L309.04 40.6562C308.933 41.1605 308.715 41.6009 308.385 41.9773C308.058 42.3501 307.635 42.6413 307.117 42.8509C306.602 43.0568 306.007 43.1598 305.332 43.1598ZM312.838 32.0909V43H310.569V32.0909H312.838ZM316.925 32.0909V43H314.656V32.0909H316.925ZM329.842 34.8182L326.982 43H324.425L321.564 34.8182H323.961L325.661 40.6722H325.746L327.44 34.8182H329.842ZM331.003 43V34.8182H333.272V43H331.003ZM332.143 33.7635C331.806 33.7635 331.516 33.6516 331.275 33.4279C331.037 33.2006 330.918 32.929 330.918 32.6129C330.918 32.3004 331.037 32.0323 331.275 31.8086C331.516 31.5813 331.806 31.4677 332.143 31.4677C332.48 31.4677 332.768 31.5813 333.006 31.8086C333.248 32.0323 333.368 32.3004 333.368 32.6129C333.368 32.929 333.248 33.2006 333.006 33.4279C332.768 33.6516 332.48 33.7635 332.143 33.7635ZM338.819 43.1598C337.977 43.1598 337.253 42.9893 336.646 42.6484C336.042 42.304 335.577 41.8175 335.25 41.1889C334.923 40.5568 334.76 39.8093 334.76 38.9464C334.76 38.1048 334.923 37.3661 335.25 36.7305C335.577 36.0948 336.036 35.5994 336.63 35.2443C337.226 34.8892 337.926 34.7116 338.728 34.7116C339.268 34.7116 339.771 34.7987 340.236 34.9727C340.704 35.1431 341.113 35.4006 341.461 35.745C341.812 36.0895 342.086 36.5227 342.281 37.0447C342.476 37.5632 342.574 38.1705 342.574 38.8665V39.4897H335.665V38.0835H340.438C340.438 37.7567 340.367 37.4673 340.225 37.2152C340.083 36.9631 339.886 36.766 339.634 36.6239C339.385 36.4783 339.096 36.4055 338.766 36.4055C338.421 36.4055 338.116 36.4854 337.849 36.6452C337.587 36.8015 337.381 37.0128 337.231 37.2791C337.082 37.5419 337.006 37.8349 337.002 38.158V39.495C337.002 39.8999 337.077 40.2496 337.226 40.5444C337.379 40.8391 337.594 41.0664 337.871 41.2262C338.148 41.386 338.476 41.4659 338.856 41.4659C339.108 41.4659 339.339 41.4304 339.549 41.3594C339.758 41.2884 339.937 41.1818 340.087 41.0398C340.236 40.8977 340.349 40.7237 340.427 40.5178L342.526 40.6562C342.42 41.1605 342.201 41.6009 341.871 41.9773C341.544 42.3501 341.122 42.6413 340.603 42.8509C340.088 43.0568 339.494 43.1598 338.819 43.1598ZM345.61 43L343.384 34.8182H345.68L346.947 40.3153H347.022L348.343 34.8182H350.596L351.938 40.2834H352.008L353.254 34.8182H355.545L353.323 43H350.921L349.515 37.8544H349.414L348.007 43H345.61ZM360.279 43.1598C359.437 43.1598 358.713 42.9893 358.105 42.6484C357.502 42.304 357.037 41.8175 356.71 41.1889C356.383 40.5568 356.22 39.8093 356.22 38.9464C356.22 38.1048 356.383 37.3661 356.71 36.7305C357.037 36.0948 357.496 35.5994 358.089 35.2443C358.686 34.8892 359.386 34.7116 360.188 34.7116C360.728 34.7116 361.23 34.7987 361.696 34.9727C362.164 35.1431 362.573 35.4006 362.921 35.745C363.272 36.0895 363.546 36.5227 363.741 37.0447C363.936 37.5632 364.034 38.1705 364.034 38.8665V39.4897H357.125V38.0835H361.898C361.898 37.7567 361.827 37.4673 361.685 37.2152C361.543 36.9631 361.346 36.766 361.094 36.6239C360.845 36.4783 360.556 36.4055 360.225 36.4055C359.881 36.4055 359.576 36.4854 359.309 36.6452C359.047 36.8015 358.841 37.0128 358.691 37.2791C358.542 37.5419 358.466 37.8349 358.462 38.158V39.495C358.462 39.8999 358.537 40.2496 358.686 40.5444C358.839 40.8391 359.054 41.0664 359.331 41.2262C359.608 41.386 359.936 41.4659 360.316 41.4659C360.568 41.4659 360.799 41.4304 361.009 41.3594C361.218 41.2884 361.397 41.1818 361.547 41.0398C361.696 40.8977 361.809 40.7237 361.887 40.5178L363.986 40.6562C363.88 41.1605 363.661 41.6009 363.331 41.9773C363.004 42.3501 362.582 42.6413 362.063 42.8509C361.548 43.0568 360.953 43.1598 360.279 43.1598ZM365.515 43V34.8182H367.715V36.2457H367.8C367.949 35.7379 368.2 35.3544 368.551 35.0952C368.903 34.8324 369.308 34.701 369.766 34.701C369.879 34.701 370.002 34.7081 370.133 34.7223C370.265 34.7365 370.38 34.756 370.479 34.7809V36.7944C370.373 36.7624 370.225 36.734 370.037 36.7092C369.849 36.6843 369.677 36.6719 369.521 36.6719C369.187 36.6719 368.888 36.7447 368.626 36.8903C368.366 37.0323 368.161 37.2312 368.008 37.4869C367.859 37.7425 367.784 38.0373 367.784 38.3711V43H365.515ZM378.46 37.1513L376.383 37.2791C376.347 37.1016 376.271 36.9418 376.154 36.7997C376.036 36.6541 375.882 36.5387 375.69 36.4535C375.502 36.3647 375.277 36.3203 375.014 36.3203C374.662 36.3203 374.366 36.3949 374.124 36.544C373.883 36.6896 373.762 36.8849 373.762 37.13C373.762 37.3253 373.84 37.4904 373.996 37.6254C374.153 37.7603 374.421 37.8686 374.801 37.9503L376.282 38.2486C377.077 38.4119 377.67 38.6747 378.061 39.0369C378.451 39.3991 378.647 39.875 378.647 40.4645C378.647 41.0007 378.489 41.4712 378.172 41.8761C377.86 42.2809 377.43 42.5969 376.883 42.8242C376.34 43.0479 375.713 43.1598 375.003 43.1598C373.92 43.1598 373.057 42.9343 372.414 42.4833C371.775 42.0288 371.4 41.4109 371.29 40.6296L373.522 40.5124C373.59 40.8427 373.753 41.0948 374.012 41.2688C374.272 41.4393 374.604 41.5245 375.008 41.5245C375.406 41.5245 375.726 41.4482 375.967 41.2955C376.212 41.1392 376.337 40.9386 376.34 40.6935C376.337 40.4876 376.25 40.3189 376.079 40.1875C375.909 40.0526 375.646 39.9496 375.291 39.8786L373.874 39.5962C373.075 39.4364 372.48 39.1594 372.089 38.7653C371.702 38.3711 371.509 37.8686 371.509 37.2578C371.509 36.7322 371.651 36.2795 371.935 35.8995C372.223 35.5195 372.626 35.2266 373.144 35.0206C373.666 34.8146 374.277 34.7116 374.976 34.7116C376.01 34.7116 376.823 34.93 377.416 35.3668C378.013 35.8036 378.361 36.3984 378.46 37.1513ZM385.88 43.1545C385.358 43.1545 384.893 43.0639 384.485 42.8828C384.076 42.6982 383.753 42.4265 383.515 42.0678C383.281 41.7056 383.164 41.2546 383.164 40.7148C383.164 40.2603 383.247 39.8786 383.414 39.5696C383.581 39.2607 383.808 39.0121 384.096 38.8239C384.383 38.6357 384.71 38.4936 385.076 38.3977C385.445 38.3018 385.832 38.2344 386.237 38.1953C386.713 38.1456 387.097 38.0994 387.388 38.0568C387.679 38.0107 387.89 37.9432 388.022 37.8544C388.153 37.7656 388.219 37.6342 388.219 37.4602V37.4283C388.219 37.0909 388.112 36.8299 387.899 36.6452C387.69 36.4606 387.391 36.3683 387.004 36.3683C386.596 36.3683 386.271 36.4588 386.029 36.6399C385.788 36.8175 385.628 37.0412 385.55 37.3111L383.451 37.1406C383.558 36.6435 383.767 36.2138 384.08 35.8516C384.392 35.4858 384.795 35.2053 385.289 35.0099C385.786 34.8111 386.361 34.7116 387.015 34.7116C387.469 34.7116 387.904 34.7649 388.32 34.8714C388.739 34.978 389.11 35.1431 389.433 35.3668C389.76 35.5906 390.017 35.8782 390.206 36.2298C390.394 36.5778 390.488 36.995 390.488 37.4815V43H388.336V41.8654H388.272C388.141 42.1211 387.965 42.3466 387.745 42.5419C387.524 42.7337 387.26 42.8846 386.951 42.9947C386.642 43.1012 386.285 43.1545 385.88 43.1545ZM386.53 41.5884C386.864 41.5884 387.159 41.5227 387.414 41.3913C387.67 41.2564 387.871 41.0753 388.016 40.848C388.162 40.6207 388.235 40.3633 388.235 40.0756V39.2074C388.164 39.2536 388.066 39.2962 387.942 39.3352C387.821 39.3707 387.684 39.4045 387.532 39.4364C387.379 39.4648 387.226 39.4915 387.073 39.5163C386.921 39.5376 386.782 39.5572 386.658 39.5749C386.392 39.614 386.159 39.6761 385.96 39.7614C385.761 39.8466 385.607 39.962 385.497 40.1076C385.387 40.2496 385.332 40.4272 385.332 40.6403C385.332 40.9492 385.443 41.1854 385.667 41.3487C385.894 41.5085 386.182 41.5884 386.53 41.5884ZM392.291 43V32.0909H394.56V36.1925H394.629C394.729 35.9723 394.873 35.7486 395.061 35.5213C395.253 35.2905 395.501 35.0987 395.807 34.946C396.116 34.7898 396.499 34.7116 396.957 34.7116C397.554 34.7116 398.104 34.8679 398.608 35.1804C399.113 35.4893 399.516 35.9563 399.818 36.5813C400.119 37.2028 400.27 37.9822 400.27 38.9197C400.27 39.8324 400.123 40.603 399.828 41.2315C399.537 41.8565 399.139 42.3306 398.635 42.6538C398.134 42.9734 397.573 43.1332 396.952 43.1332C396.511 43.1332 396.137 43.0604 395.828 42.9148C395.522 42.7692 395.272 42.5863 395.077 42.3661C394.881 42.1424 394.732 41.9169 394.629 41.6896H394.528V43H392.291ZM394.512 38.9091C394.512 39.3956 394.58 39.82 394.715 40.1822C394.85 40.5444 395.045 40.8267 395.301 41.0291C395.556 41.228 395.867 41.3274 396.233 41.3274C396.602 41.3274 396.915 41.2262 397.17 41.0238C397.426 40.8178 397.619 40.5337 397.751 40.1715C397.886 39.8058 397.953 39.3849 397.953 38.9091C397.953 38.4368 397.888 38.0213 397.756 37.6626C397.625 37.304 397.431 37.0234 397.176 36.821C396.92 36.6186 396.606 36.5174 396.233 36.5174C395.863 36.5174 395.551 36.6151 395.295 36.8104C395.043 37.0057 394.85 37.2827 394.715 37.6413C394.58 38 394.512 38.4226 394.512 38.9091ZM405.481 43.1598C404.654 43.1598 403.938 42.984 403.335 42.6325C402.734 42.2773 402.271 41.7837 401.944 41.1516C401.618 40.516 401.454 39.7791 401.454 38.9411C401.454 38.0959 401.618 37.3572 401.944 36.7251C402.271 36.0895 402.734 35.5959 403.335 35.2443C403.938 34.8892 404.654 34.7116 405.481 34.7116C406.309 34.7116 407.022 34.8892 407.623 35.2443C408.226 35.5959 408.691 36.0895 409.018 36.7251C409.345 37.3572 409.508 38.0959 409.508 38.9411C409.508 39.7791 409.345 40.516 409.018 41.1516C408.691 41.7837 408.226 42.2773 407.623 42.6325C407.022 42.984 406.309 43.1598 405.481 43.1598ZM405.492 41.402C405.868 41.402 406.183 41.2955 406.435 41.0824C406.687 40.8658 406.877 40.571 407.005 40.1982C407.136 39.8253 407.202 39.4009 407.202 38.9251C407.202 38.4492 407.136 38.0249 407.005 37.652C406.877 37.2791 406.687 36.9844 406.435 36.7678C406.183 36.5511 405.868 36.4428 405.492 36.4428C405.112 36.4428 404.792 36.5511 404.533 36.7678C404.277 36.9844 404.084 37.2791 403.952 37.652C403.825 38.0249 403.761 38.4492 403.761 38.9251C403.761 39.4009 403.825 39.8253 403.952 40.1982C404.084 40.571 404.277 40.8658 404.533 41.0824C404.792 41.2955 405.112 41.402 405.492 41.402ZM416.23 39.5163V34.8182H418.5V43H416.321V41.5138H416.236C416.051 41.9933 415.744 42.3786 415.314 42.6697C414.888 42.9609 414.368 43.1065 413.754 43.1065C413.207 43.1065 412.725 42.9822 412.31 42.7337C411.895 42.4851 411.57 42.1317 411.335 41.6737C411.104 41.2156 410.987 40.6669 410.984 40.0277V34.8182H413.253V39.6229C413.256 40.1058 413.386 40.4876 413.642 40.7681C413.897 41.0487 414.24 41.1889 414.67 41.1889C414.943 41.1889 415.199 41.1268 415.437 41.0025C415.675 40.8746 415.866 40.6864 416.012 40.4379C416.161 40.1893 416.234 39.8821 416.23 39.5163ZM424.667 34.8182V36.5227H419.739V34.8182H424.667ZM420.858 32.858H423.127V40.4858C423.127 40.6953 423.159 40.8587 423.223 40.9759C423.287 41.0895 423.376 41.1694 423.489 41.2156C423.607 41.2617 423.742 41.2848 423.894 41.2848C424.001 41.2848 424.107 41.2759 424.214 41.2582C424.32 41.2369 424.402 41.2209 424.459 41.2102L424.816 42.8988C424.702 42.9343 424.542 42.9751 424.336 43.0213C424.13 43.071 423.88 43.1012 423.585 43.1119C423.038 43.1332 422.559 43.0604 422.147 42.8935C421.739 42.7266 421.421 42.4673 421.194 42.1158C420.966 41.7642 420.854 41.3203 420.858 40.7841V32.858ZM431.017 46.0682C430.73 46.0682 430.46 46.0451 430.208 45.9989C429.959 45.9563 429.753 45.9013 429.59 45.8338L430.101 44.1399C430.368 44.2216 430.607 44.266 430.82 44.2731C431.037 44.2802 431.223 44.2305 431.38 44.1239C431.539 44.0174 431.669 43.8363 431.768 43.5806L431.902 43.2344L428.967 34.8182H431.353L433.047 40.8267H433.132L434.842 34.8182H437.244L434.064 43.8842C433.912 44.3246 433.704 44.7081 433.441 45.0348C433.182 45.3651 432.853 45.619 432.456 45.7965C432.058 45.9776 431.578 46.0682 431.017 46.0682ZM441.839 43.1598C441.011 43.1598 440.296 42.984 439.692 42.6325C439.092 42.2773 438.628 41.7837 438.302 41.1516C437.975 40.516 437.812 39.7791 437.812 38.9411C437.812 38.0959 437.975 37.3572 438.302 36.7251C438.628 36.0895 439.092 35.5959 439.692 35.2443C440.296 34.8892 441.011 34.7116 441.839 34.7116C442.666 34.7116 443.38 34.8892 443.98 35.2443C444.584 35.5959 445.049 36.0895 445.376 36.7251C445.702 37.3572 445.866 38.0959 445.866 38.9411C445.866 39.7791 445.702 40.516 445.376 41.1516C445.049 41.7837 444.584 42.2773 443.98 42.6325C443.38 42.984 442.666 43.1598 441.839 43.1598ZM441.849 41.402C442.226 41.402 442.54 41.2955 442.792 41.0824C443.044 40.8658 443.234 40.571 443.362 40.1982C443.493 39.8253 443.559 39.4009 443.559 38.9251C443.559 38.4492 443.493 38.0249 443.362 37.652C443.234 37.2791 443.044 36.9844 442.792 36.7678C442.54 36.5511 442.226 36.4428 441.849 36.4428C441.469 36.4428 441.15 36.5511 440.89 36.7678C440.635 36.9844 440.441 37.2791 440.31 37.652C440.182 38.0249 440.118 38.4492 440.118 38.9251C440.118 39.4009 440.182 39.8253 440.31 40.1982C440.441 40.571 440.635 40.8658 440.89 41.0824C441.15 41.2955 441.469 41.402 441.849 41.402ZM452.588 39.5163V34.8182H454.857V43H452.678V41.5138H452.593C452.409 41.9933 452.101 42.3786 451.672 42.6697C451.246 42.9609 450.725 43.1065 450.111 43.1065C449.564 43.1065 449.083 42.9822 448.667 42.7337C448.252 42.4851 447.927 42.1317 447.693 41.6737C447.462 41.2156 447.345 40.6669 447.341 40.0277V34.8182H449.61V39.6229C449.614 40.1058 449.743 40.4876 449.999 40.7681C450.255 41.0487 450.597 41.1889 451.027 41.1889C451.301 41.1889 451.556 41.1268 451.794 41.0025C452.032 40.8746 452.224 40.6864 452.369 40.4379C452.519 40.1893 452.591 39.8821 452.588 39.5163ZM456.672 43V34.8182H458.872V36.2457H458.957C459.106 35.7379 459.357 35.3544 459.708 35.0952C460.06 34.8324 460.465 34.701 460.923 34.701C461.036 34.701 461.159 34.7081 461.29 34.7223C461.422 34.7365 461.537 34.756 461.637 34.7809V36.7944C461.53 36.7624 461.383 36.734 461.195 36.7092C461.006 36.6843 460.834 36.6719 460.678 36.6719C460.344 36.6719 460.046 36.7447 459.783 36.8903C459.524 37.0323 459.318 37.2312 459.165 37.4869C459.016 37.7425 458.941 38.0373 458.941 38.3711V43H456.672ZM473.909 34.8182L471.049 43H468.492L465.632 34.8182H468.029L469.728 40.6722H469.813L471.507 34.8182H473.909ZM475.071 43V34.8182H477.34V43H475.071ZM476.21 33.7635C475.873 33.7635 475.584 33.6516 475.342 33.4279C475.104 33.2006 474.985 32.929 474.985 32.6129C474.985 32.3004 475.104 32.0323 475.342 31.8086C475.584 31.5813 475.873 31.4677 476.21 31.4677C476.548 31.4677 476.835 31.5813 477.073 31.8086C477.315 32.0323 477.436 32.3004 477.436 32.6129C477.436 32.929 477.315 33.2006 477.073 33.4279C476.835 33.6516 476.548 33.7635 476.21 33.7635ZM482.172 43.1332C481.551 43.1332 480.988 42.9734 480.484 42.6538C479.983 42.3306 479.585 41.8565 479.291 41.2315C478.999 40.603 478.854 39.8324 478.854 38.9197C478.854 37.9822 479.005 37.2028 479.307 36.5813C479.608 35.9563 480.01 35.4893 480.51 35.1804C481.015 34.8679 481.567 34.7116 482.167 34.7116C482.625 34.7116 483.007 34.7898 483.312 34.946C483.621 35.0987 483.87 35.2905 484.058 35.5213C484.25 35.7486 484.395 35.9723 484.495 36.1925H484.564V32.0909H486.828V43H484.591V41.6896H484.495C484.388 41.9169 484.237 42.1424 484.042 42.3661C483.85 42.5863 483.6 42.7692 483.291 42.9148C482.986 43.0604 482.613 43.1332 482.172 43.1332ZM482.892 41.3274C483.257 41.3274 483.566 41.228 483.818 41.0291C484.074 40.8267 484.269 40.5444 484.404 40.1822C484.543 39.82 484.612 39.3956 484.612 38.9091C484.612 38.4226 484.545 38 484.41 37.6413C484.275 37.2827 484.079 37.0057 483.824 36.8104C483.568 36.6151 483.257 36.5174 482.892 36.5174C482.519 36.5174 482.204 36.6186 481.949 36.821C481.693 37.0234 481.499 37.304 481.368 37.6626C481.237 38.0213 481.171 38.4368 481.171 38.9091C481.171 39.3849 481.237 39.8058 481.368 40.1715C481.503 40.5337 481.697 40.8178 481.949 41.0238C482.204 41.2262 482.519 41.3274 482.892 41.3274ZM492.422 43.1598C491.581 43.1598 490.856 42.9893 490.249 42.6484C489.645 42.304 489.18 41.8175 488.853 41.1889C488.527 40.5568 488.363 39.8093 488.363 38.9464C488.363 38.1048 488.527 37.3661 488.853 36.7305C489.18 36.0948 489.64 35.5994 490.233 35.2443C490.83 34.8892 491.529 34.7116 492.332 34.7116C492.872 34.7116 493.374 34.7987 493.839 34.9727C494.308 35.1431 494.716 35.4006 495.064 35.745C495.416 36.0895 495.689 36.5227 495.885 37.0447C496.08 37.5632 496.178 38.1705 496.178 38.8665V39.4897H489.269V38.0835H494.042C494.042 37.7567 493.971 37.4673 493.829 37.2152C493.687 36.9631 493.489 36.766 493.237 36.6239C492.989 36.4783 492.699 36.4055 492.369 36.4055C492.025 36.4055 491.719 36.4854 491.453 36.6452C491.19 36.8015 490.984 37.0128 490.835 37.2791C490.686 37.5419 490.609 37.8349 490.606 38.158V39.495C490.606 39.8999 490.68 40.2496 490.83 40.5444C490.982 40.8391 491.197 41.0664 491.474 41.2262C491.751 41.386 492.08 41.4659 492.46 41.4659C492.712 41.4659 492.943 41.4304 493.152 41.3594C493.362 41.2884 493.541 41.1818 493.69 41.0398C493.839 40.8977 493.953 40.7237 494.031 40.5178L496.13 40.6562C496.023 41.1605 495.805 41.6009 495.475 41.9773C495.148 42.3501 494.725 42.6413 494.207 42.8509C493.692 43.0568 493.097 43.1598 492.422 43.1598ZM501.355 43.1598C500.528 43.1598 499.812 42.984 499.209 42.6325C498.608 42.2773 498.145 41.7837 497.818 41.1516C497.492 40.516 497.328 39.7791 497.328 38.9411C497.328 38.0959 497.492 37.3572 497.818 36.7251C498.145 36.0895 498.608 35.5959 499.209 35.2443C499.812 34.8892 500.528 34.7116 501.355 34.7116C502.183 34.7116 502.896 34.8892 503.497 35.2443C504.1 35.5959 504.565 36.0895 504.892 36.7251C505.219 37.3572 505.382 38.0959 505.382 38.9411C505.382 39.7791 505.219 40.516 504.892 41.1516C504.565 41.7837 504.1 42.2773 503.497 42.6325C502.896 42.984 502.183 43.1598 501.355 43.1598ZM501.366 41.402C501.742 41.402 502.057 41.2955 502.309 41.0824C502.561 40.8658 502.751 40.571 502.879 40.1982C503.01 39.8253 503.076 39.4009 503.076 38.9251C503.076 38.4492 503.01 38.0249 502.879 37.652C502.751 37.2791 502.561 36.9844 502.309 36.7678C502.057 36.5511 501.742 36.4428 501.366 36.4428C500.986 36.4428 500.666 36.5511 500.407 36.7678C500.151 36.9844 499.958 37.2791 499.826 37.652C499.699 38.0249 499.635 38.4492 499.635 38.9251C499.635 39.4009 499.699 39.8253 499.826 40.1982C499.958 40.571 500.151 40.8658 500.407 41.0824C500.666 41.2955 500.986 41.402 501.366 41.402ZM510.83 37.5455C510.83 36.2244 511.006 35.0082 511.357 33.8967C511.713 32.7852 512.254 31.7553 512.982 30.8072H515.15C514.873 31.1587 514.616 31.5884 514.378 32.0962C514.14 32.6005 513.932 33.1545 513.754 33.7582C513.577 34.3619 513.438 34.9869 513.339 35.6332C513.24 36.2759 513.19 36.9134 513.19 37.5455C513.19 38.3871 513.275 39.2376 513.445 40.0969C513.619 40.9528 513.854 41.7482 514.149 42.4833C514.447 43.2184 514.781 43.8203 515.15 44.2891H512.982C512.254 43.3409 511.713 42.3111 511.357 41.1996C511.006 40.0881 510.83 38.87 510.83 37.5455ZM526.135 35.9102H523.802C523.759 35.6083 523.672 35.3402 523.541 35.1058C523.41 34.8679 523.241 34.6655 523.035 34.4986C522.829 34.3317 522.591 34.2038 522.321 34.1151C522.055 34.0263 521.765 33.9819 521.453 33.9819C520.888 33.9819 520.396 34.1222 519.977 34.4027C519.558 34.6797 519.233 35.0845 519.003 35.6172C518.772 36.1463 518.656 36.7891 518.656 37.5455C518.656 38.3232 518.772 38.9766 519.003 39.5057C519.237 40.0348 519.564 40.4343 519.983 40.7042C520.402 40.9741 520.886 41.109 521.437 41.109C521.746 41.109 522.032 41.0682 522.294 40.9865C522.561 40.9048 522.797 40.7859 523.003 40.6296C523.209 40.4698 523.379 40.2763 523.514 40.049C523.653 39.8217 523.749 39.5625 523.802 39.2713L526.135 39.282C526.075 39.7827 525.924 40.2656 525.682 40.7308C525.444 41.1925 525.123 41.6062 524.718 41.9719C524.317 42.3342 523.837 42.6218 523.28 42.8349C522.726 43.0444 522.099 43.1491 521.4 43.1491C520.427 43.1491 519.557 42.929 518.79 42.4886C518.026 42.0483 517.422 41.4109 516.978 40.5763C516.538 39.7418 516.318 38.7315 516.318 37.5455C516.318 36.3558 516.542 35.3438 516.989 34.5092C517.437 33.6747 518.044 33.0391 518.811 32.6023C519.578 32.1619 520.441 31.9418 521.4 31.9418C522.032 31.9418 522.618 32.0305 523.157 32.2081C523.701 32.3857 524.182 32.6449 524.601 32.9858C525.02 33.3232 525.361 33.7369 525.624 34.2269C525.89 34.717 526.06 35.2781 526.135 35.9102ZM531.443 43.1598C530.616 43.1598 529.9 42.984 529.296 42.6325C528.696 42.2773 528.233 41.7837 527.906 41.1516C527.579 40.516 527.416 39.7791 527.416 38.9411C527.416 38.0959 527.579 37.3572 527.906 36.7251C528.233 36.0895 528.696 35.5959 529.296 35.2443C529.9 34.8892 530.616 34.7116 531.443 34.7116C532.271 34.7116 532.984 34.8892 533.584 35.2443C534.188 35.5959 534.653 36.0895 534.98 36.7251C535.307 37.3572 535.47 38.0959 535.47 38.9411C535.47 39.7791 535.307 40.516 534.98 41.1516C534.653 41.7837 534.188 42.2773 533.584 42.6325C532.984 42.984 532.271 43.1598 531.443 43.1598ZM531.454 41.402C531.83 41.402 532.144 41.2955 532.397 41.0824C532.649 40.8658 532.839 40.571 532.967 40.1982C533.098 39.8253 533.164 39.4009 533.164 38.9251C533.164 38.4492 533.098 38.0249 532.967 37.652C532.839 37.2791 532.649 36.9844 532.397 36.7678C532.144 36.5511 531.83 36.4428 531.454 36.4428C531.074 36.4428 530.754 36.5511 530.495 36.7678C530.239 36.9844 530.046 37.2791 529.914 37.652C529.786 38.0249 529.723 38.4492 529.723 38.9251C529.723 39.4009 529.786 39.8253 529.914 40.1982C530.046 40.571 530.239 40.8658 530.495 41.0824C530.754 41.2955 531.074 41.402 531.454 41.402ZM542.192 39.5163V34.8182H544.462V43H542.283V41.5138H542.198C542.013 41.9933 541.706 42.3786 541.276 42.6697C540.85 42.9609 540.33 43.1065 539.715 43.1065C539.169 43.1065 538.687 42.9822 538.272 42.7337C537.856 42.4851 537.532 42.1317 537.297 41.6737C537.066 41.2156 536.949 40.6669 536.946 40.0277V34.8182H539.215V39.6229C539.218 40.1058 539.348 40.4876 539.604 40.7681C539.859 41.0487 540.202 41.1889 540.632 41.1889C540.905 41.1889 541.161 41.1268 541.399 41.0025C541.637 40.8746 541.828 40.6864 541.974 40.4379C542.123 40.1893 542.196 39.8821 542.192 39.5163ZM546.277 43V34.8182H548.477V36.2457H548.562C548.711 35.7379 548.961 35.3544 549.313 35.0952C549.664 34.8324 550.069 34.701 550.527 34.701C550.641 34.701 550.763 34.7081 550.895 34.7223C551.026 34.7365 551.142 34.756 551.241 34.7809V36.7944C551.135 36.7624 550.987 36.734 550.799 36.7092C550.611 36.6843 550.439 36.6719 550.282 36.6719C549.949 36.6719 549.65 36.7447 549.387 36.8903C549.128 37.0323 548.922 37.2312 548.77 37.4869C548.62 37.7425 548.546 38.0373 548.546 38.3711V43H546.277ZM559.222 37.1513L557.144 37.2791C557.109 37.1016 557.033 36.9418 556.915 36.7997C556.798 36.6541 556.644 36.5387 556.452 36.4535C556.264 36.3647 556.038 36.3203 555.775 36.3203C555.424 36.3203 555.127 36.3949 554.886 36.544C554.644 36.6896 554.524 36.8849 554.524 37.13C554.524 37.3253 554.602 37.4904 554.758 37.6254C554.914 37.7603 555.182 37.8686 555.562 37.9503L557.043 38.2486C557.839 38.4119 558.432 38.6747 558.822 39.0369C559.213 39.3991 559.408 39.875 559.408 40.4645C559.408 41.0007 559.25 41.4712 558.934 41.8761C558.622 42.2809 558.192 42.5969 557.645 42.8242C557.102 43.0479 556.475 43.1598 555.765 43.1598C554.682 43.1598 553.819 42.9343 553.176 42.4833C552.537 42.0288 552.162 41.4109 552.052 40.6296L554.284 40.5124C554.351 40.8427 554.515 41.0948 554.774 41.2688C555.033 41.4393 555.365 41.5245 555.77 41.5245C556.168 41.5245 556.487 41.4482 556.729 41.2955C556.974 41.1392 557.098 40.9386 557.102 40.6935C557.098 40.4876 557.011 40.3189 556.841 40.1875C556.67 40.0526 556.408 39.9496 556.052 39.8786L554.636 39.5962C553.837 39.4364 553.242 39.1594 552.851 38.7653C552.464 38.3711 552.271 37.8686 552.271 37.2578C552.271 36.7322 552.413 36.2795 552.697 35.8995C552.984 35.5195 553.387 35.2266 553.906 35.0206C554.428 34.8146 555.039 34.7116 555.738 34.7116C556.772 34.7116 557.585 34.93 558.178 35.3668C558.774 35.8036 559.122 36.3984 559.222 37.1513ZM564.566 43.1598C563.724 43.1598 563 42.9893 562.393 42.6484C561.789 42.304 561.324 41.8175 560.997 41.1889C560.67 40.5568 560.507 39.8093 560.507 38.9464C560.507 38.1048 560.67 37.3661 560.997 36.7305C561.324 36.0948 561.784 35.5994 562.377 35.2443C562.973 34.8892 563.673 34.7116 564.475 34.7116C565.015 34.7116 565.518 34.7987 565.983 34.9727C566.452 35.1431 566.86 35.4006 567.208 35.745C567.559 36.0895 567.833 36.5227 568.028 37.0447C568.224 37.5632 568.321 38.1705 568.321 38.8665V39.4897H561.412V38.0835H566.185C566.185 37.7567 566.114 37.4673 565.972 37.2152C565.83 36.9631 565.633 36.766 565.381 36.6239C565.132 36.4783 564.843 36.4055 564.513 36.4055C564.168 36.4055 563.863 36.4854 563.596 36.6452C563.334 36.8015 563.128 37.0128 562.979 37.2791C562.829 37.5419 562.753 37.8349 562.749 38.158V39.495C562.749 39.8999 562.824 40.2496 562.973 40.5444C563.126 40.8391 563.341 41.0664 563.618 41.2262C563.895 41.386 564.223 41.4659 564.603 41.4659C564.855 41.4659 565.086 41.4304 565.296 41.3594C565.505 41.2884 565.684 41.1818 565.834 41.0398C565.983 40.8977 566.096 40.7237 566.175 40.5178L568.273 40.6562C568.167 41.1605 567.948 41.6009 567.618 41.9773C567.291 42.3501 566.869 42.6413 566.35 42.8509C565.835 43.0568 565.241 43.1598 564.566 43.1598ZM576.289 43.1332C575.667 43.1332 575.104 42.9734 574.6 42.6538C574.099 42.3306 573.702 41.8565 573.407 41.2315C573.116 40.603 572.97 39.8324 572.97 38.9197C572.97 37.9822 573.121 37.2028 573.423 36.5813C573.725 35.9563 574.126 35.4893 574.627 35.1804C575.131 34.8679 575.683 34.7116 576.283 34.7116C576.741 34.7116 577.123 34.7898 577.429 34.946C577.737 35.0987 577.986 35.2905 578.174 35.5213C578.366 35.7486 578.512 35.9723 578.611 36.1925H578.68V32.0909H580.944V43H578.707V41.6896H578.611C578.505 41.9169 578.354 42.1424 578.158 42.3661C577.967 42.5863 577.716 42.7692 577.407 42.9148C577.102 43.0604 576.729 43.1332 576.289 43.1332ZM577.008 41.3274C577.373 41.3274 577.682 41.228 577.935 41.0291C578.19 40.8267 578.386 40.5444 578.521 40.1822C578.659 39.82 578.728 39.3956 578.728 38.9091C578.728 38.4226 578.661 38 578.526 37.6413C578.391 37.2827 578.196 37.0057 577.94 36.8104C577.684 36.6151 577.373 36.5174 577.008 36.5174C576.635 36.5174 576.321 36.6186 576.065 36.821C575.809 37.0234 575.616 37.304 575.484 37.6626C575.353 38.0213 575.287 38.4368 575.287 38.9091C575.287 39.3849 575.353 39.8058 575.484 40.1715C575.619 40.5337 575.813 40.8178 576.065 41.0238C576.321 41.2262 576.635 41.3274 577.008 41.3274ZM586.539 43.1598C585.697 43.1598 584.972 42.9893 584.365 42.6484C583.762 42.304 583.296 41.8175 582.97 41.1889C582.643 40.5568 582.48 39.8093 582.48 38.9464C582.48 38.1048 582.643 37.3661 582.97 36.7305C583.296 36.0948 583.756 35.5994 584.349 35.2443C584.946 34.8892 585.645 34.7116 586.448 34.7116C586.988 34.7116 587.49 34.7987 587.955 34.9727C588.424 35.1431 588.833 35.4006 589.181 35.745C589.532 36.0895 589.806 36.5227 590.001 37.0447C590.196 37.5632 590.294 38.1705 590.294 38.8665V39.4897H583.385V38.0835H588.158C588.158 37.7567 588.087 37.4673 587.945 37.2152C587.803 36.9631 587.606 36.766 587.354 36.6239C587.105 36.4783 586.816 36.4055 586.485 36.4055C586.141 36.4055 585.835 36.4854 585.569 36.6452C585.306 36.8015 585.1 37.0128 584.951 37.2791C584.802 37.5419 584.726 37.8349 584.722 38.158V39.495C584.722 39.8999 584.797 40.2496 584.946 40.5444C585.099 40.8391 585.313 41.0664 585.59 41.2262C585.867 41.386 586.196 41.4659 586.576 41.4659C586.828 41.4659 587.059 41.4304 587.268 41.3594C587.478 41.2884 587.657 41.1818 587.806 41.0398C587.955 40.8977 588.069 40.7237 588.147 40.5178L590.246 40.6562C590.139 41.1605 589.921 41.6009 589.591 41.9773C589.264 42.3501 588.841 42.6413 588.323 42.8509C587.808 43.0568 587.213 43.1598 586.539 43.1598ZM596.127 34.8182V36.5227H591.199V34.8182H596.127ZM592.318 32.858H594.587V40.4858C594.587 40.6953 594.619 40.8587 594.683 40.9759C594.747 41.0895 594.836 41.1694 594.949 41.2156C595.067 41.2617 595.202 41.2848 595.354 41.2848C595.461 41.2848 595.567 41.2759 595.674 41.2582C595.78 41.2369 595.862 41.2209 595.919 41.2102L596.276 42.8988C596.162 42.9343 596.002 42.9751 595.796 43.0213C595.59 43.071 595.34 43.1012 595.045 43.1119C594.498 43.1332 594.019 43.0604 593.607 42.8935C593.199 42.7266 592.881 42.4673 592.654 42.1158C592.426 41.7642 592.314 41.3203 592.318 40.7841V32.858ZM599.938 43.1545C599.416 43.1545 598.951 43.0639 598.542 42.8828C598.134 42.6982 597.811 42.4265 597.573 42.0678C597.338 41.7056 597.221 41.2546 597.221 40.7148C597.221 40.2603 597.305 39.8786 597.472 39.5696C597.638 39.2607 597.866 39.0121 598.153 38.8239C598.441 38.6357 598.768 38.4936 599.134 38.3977C599.503 38.3018 599.89 38.2344 600.295 38.1953C600.771 38.1456 601.154 38.0994 601.445 38.0568C601.737 38.0107 601.948 37.9432 602.079 37.8544C602.211 37.7656 602.276 37.6342 602.276 37.4602V37.4283C602.276 37.0909 602.17 36.8299 601.957 36.6452C601.747 36.4606 601.449 36.3683 601.062 36.3683C600.653 36.3683 600.328 36.4588 600.087 36.6399C599.846 36.8175 599.686 37.0412 599.608 37.3111L597.509 37.1406C597.615 36.6435 597.825 36.2138 598.137 35.8516C598.45 35.4858 598.853 35.2053 599.347 35.0099C599.844 34.8111 600.419 34.7116 601.072 34.7116C601.527 34.7116 601.962 34.7649 602.377 34.8714C602.797 34.978 603.168 35.1431 603.491 35.3668C603.817 35.5906 604.075 35.8782 604.263 36.2298C604.451 36.5778 604.545 36.995 604.545 37.4815V43H602.393V41.8654H602.33C602.198 42.1211 602.022 42.3466 601.802 42.5419C601.582 42.7337 601.317 42.8846 601.009 42.9947C600.7 43.1012 600.343 43.1545 599.938 43.1545ZM600.588 41.5884C600.922 41.5884 601.216 41.5227 601.472 41.3913C601.728 41.2564 601.928 41.0753 602.074 40.848C602.219 40.6207 602.292 40.3633 602.292 40.0756V39.2074C602.221 39.2536 602.124 39.2962 601.999 39.3352C601.879 39.3707 601.742 39.4045 601.589 39.4364C601.436 39.4648 601.284 39.4915 601.131 39.5163C600.978 39.5376 600.84 39.5572 600.716 39.5749C600.449 39.614 600.217 39.6761 600.018 39.7614C599.819 39.8466 599.664 39.962 599.554 40.1076C599.444 40.2496 599.389 40.4272 599.389 40.6403C599.389 40.9492 599.501 41.1854 599.725 41.3487C599.952 41.5085 600.24 41.5884 600.588 41.5884ZM606.306 43V34.8182H608.575V43H606.306ZM607.446 33.7635C607.108 33.7635 606.819 33.6516 606.578 33.4279C606.34 33.2006 606.221 32.929 606.221 32.6129C606.221 32.3004 606.34 32.0323 606.578 31.8086C606.819 31.5813 607.108 31.4677 607.446 31.4677C607.783 31.4677 608.071 31.5813 608.309 31.8086C608.55 32.0323 608.671 32.3004 608.671 32.6129C608.671 32.929 608.55 33.2006 608.309 33.4279C608.071 33.6516 607.783 33.7635 607.446 33.7635ZM612.662 32.0909V43H610.393V32.0909H612.662ZM621.287 37.1513L619.21 37.2791C619.174 37.1016 619.098 36.9418 618.981 36.7997C618.864 36.6541 618.709 36.5387 618.517 36.4535C618.329 36.3647 618.104 36.3203 617.841 36.3203C617.489 36.3203 617.193 36.3949 616.951 36.544C616.71 36.6896 616.589 36.8849 616.589 37.13C616.589 37.3253 616.667 37.4904 616.824 37.6254C616.98 37.7603 617.248 37.8686 617.628 37.9503L619.109 38.2486C619.904 38.4119 620.497 38.6747 620.888 39.0369C621.278 39.3991 621.474 39.875 621.474 40.4645C621.474 41.0007 621.316 41.4712 621 41.8761C620.687 42.2809 620.257 42.5969 619.711 42.8242C619.167 43.0479 618.54 43.1598 617.83 43.1598C616.747 43.1598 615.884 42.9343 615.241 42.4833C614.602 42.0288 614.228 41.4109 614.118 40.6296L616.349 40.5124C616.417 40.8427 616.58 41.0948 616.839 41.2688C617.099 41.4393 617.431 41.5245 617.836 41.5245C618.233 41.5245 618.553 41.4482 618.794 41.2955C619.039 41.1392 619.164 40.9386 619.167 40.6935C619.164 40.4876 619.077 40.3189 618.906 40.1875C618.736 40.0526 618.473 39.9496 618.118 39.8786L616.701 39.5962C615.902 39.4364 615.307 39.1594 614.917 38.7653C614.529 38.3711 614.336 37.8686 614.336 37.2578C614.336 36.7322 614.478 36.2795 614.762 35.8995C615.05 35.5195 615.453 35.2266 615.971 35.0206C616.493 34.8146 617.104 34.7116 617.804 34.7116C618.837 34.7116 619.65 34.93 620.243 35.3668C620.84 35.8036 621.188 36.3984 621.287 37.1513ZM626.727 38.6268C626.727 39.9513 626.55 41.1694 626.195 42.2809C625.843 43.3924 625.303 44.4222 624.575 45.3704H622.407C622.684 45.0188 622.942 44.5891 623.18 44.0813C623.418 43.5735 623.625 43.0195 623.803 42.4194C623.98 41.8157 624.119 41.1907 624.218 40.5444C624.318 39.8981 624.367 39.2589 624.367 38.6268C624.367 37.7852 624.28 36.9364 624.106 36.0806C623.936 35.2212 623.702 34.4258 623.403 33.6942C623.109 32.9592 622.777 32.3572 622.407 31.8885H624.575C625.303 32.8366 625.843 33.8665 626.195 34.978C626.55 36.0895 626.727 37.3058 626.727 38.6268Z" fill="#D9D9D9"/>
</svg>
