<svg width="954" height="101" viewBox="0 0 954 101" fill="none" xmlns="http://www.w3.org/2000/svg">
<g filter="url(#filter0_d_358_1009)">
<rect x="5" y="4.93042" width="944" height="90" rx="8" fill="#F9FAFC"/>
<g opacity="0.3">
<rect x="29" y="28.9304" width="133" height="42" rx="8" fill="#FFD900"/>
<path d="M53.25 50.2048H68.25" stroke="#052443" stroke-width="1.5" stroke-linecap="round" stroke-linejoin="round"/>
<path d="M59.2998 56.2292L53.2498 50.2052L59.2998 44.1802" stroke="#052443" stroke-width="1.5" stroke-linecap="round" stroke-linejoin="round"/>
<path d="M82.3125 54.9304V44.0854H86.16C86.94 44.0854 87.6375 44.2204 88.2525 44.4904C88.8725 44.7554 89.36 45.1479 89.715 45.6679C90.07 46.1879 90.2475 46.8279 90.2475 47.5879C90.2475 48.3029 90.085 48.9154 89.76 49.4254C89.44 49.9354 88.9925 50.3254 88.4175 50.5954C87.8425 50.8654 87.17 51.0004 86.4 51.0004H84.165V54.9304H82.3125ZM84.15 49.5379H86.355C86.99 49.5379 87.5075 49.3479 87.9075 48.9679C88.3125 48.5879 88.515 48.0929 88.515 47.4829C88.515 46.8629 88.305 46.3829 87.885 46.0429C87.465 45.6979 86.9375 45.5254 86.3025 45.5254H84.15V49.5379ZM91.703 54.9304V47.1754H93.4505V48.8554C93.5755 48.4704 93.753 48.1429 93.983 47.8729C94.218 47.5979 94.493 47.3879 94.808 47.2429C95.123 47.0979 95.4655 47.0254 95.8355 47.0254C95.9255 47.0254 96.013 47.0304 96.098 47.0404C96.183 47.0504 96.2455 47.0679 96.2855 47.0929V48.8404C96.2305 48.8154 96.158 48.7979 96.068 48.7879C95.983 48.7779 95.908 48.7729 95.843 48.7729C95.468 48.7429 95.1355 48.7579 94.8455 48.8179C94.5605 48.8779 94.318 48.9804 94.118 49.1254C93.923 49.2654 93.7755 49.4454 93.6755 49.6654C93.5755 49.8804 93.5255 50.1329 93.5255 50.4229V54.9304H91.703ZM99.0241 51.4729C99.0191 51.9129 99.0891 52.3029 99.2341 52.6429C99.3791 52.9829 99.5941 53.2504 99.8791 53.4454C100.164 53.6354 100.517 53.7304 100.937 53.7304C101.367 53.7304 101.739 53.6354 102.054 53.4454C102.374 53.2504 102.587 52.9554 102.692 52.5604H104.364C104.274 53.1004 104.059 53.5579 103.719 53.9329C103.379 54.3079 102.967 54.5929 102.482 54.7879C102.002 54.9829 101.502 55.0804 100.982 55.0804C100.232 55.0804 99.5716 54.9229 99.0016 54.6079C98.4366 54.2879 97.9941 53.8329 97.6741 53.2429C97.3591 52.6529 97.2016 51.9504 97.2016 51.1354C97.2016 50.3404 97.3466 49.6354 97.6366 49.0204C97.9266 48.4004 98.3441 47.9129 98.8891 47.5579C99.4391 47.2029 100.099 47.0254 100.869 47.0254C101.634 47.0254 102.277 47.1879 102.797 47.5129C103.322 47.8379 103.717 48.2929 103.982 48.8779C104.252 49.4579 104.387 50.1379 104.387 50.9179V51.4729H99.0241ZM99.0241 50.3404H102.662C102.662 49.9654 102.597 49.6279 102.467 49.3279C102.337 49.0229 102.137 48.7829 101.867 48.6079C101.602 48.4279 101.267 48.3379 100.862 48.3379C100.462 48.3379 100.124 48.4354 99.8491 48.6304C99.5741 48.8254 99.3666 49.0779 99.2266 49.3879C99.0866 49.6929 99.0191 50.0104 99.0241 50.3404ZM112.214 47.1754L109.357 54.9304H107.917L105.052 47.1754H106.724L108.584 52.6054H108.682L110.534 47.1754H112.214ZM115.397 47.1754V54.9304H113.642V47.1754H115.397ZM115.419 44.0929V45.8179H113.612V44.0929H115.419ZM120.819 55.0804C120.079 55.0804 119.434 54.9229 118.884 54.6079C118.334 54.2879 117.906 53.8304 117.601 53.2354C117.301 52.6404 117.151 51.9254 117.151 51.0904C117.151 50.2804 117.296 49.5704 117.586 48.9604C117.881 48.3504 118.304 47.8754 118.854 47.5354C119.404 47.1954 120.061 47.0254 120.826 47.0254C121.566 47.0254 122.209 47.1879 122.754 47.5129C123.299 47.8379 123.719 48.3029 124.014 48.9079C124.314 49.5129 124.464 50.2404 124.464 51.0904C124.464 51.8754 124.321 52.5679 124.036 53.1679C123.756 53.7629 123.344 54.2304 122.799 54.5704C122.259 54.9104 121.599 55.0804 120.819 55.0804ZM120.826 53.6929C121.246 53.6929 121.591 53.5779 121.861 53.3479C122.136 53.1179 122.339 52.8029 122.469 52.4029C122.604 52.0029 122.671 51.5479 122.671 51.0379C122.671 50.5629 122.611 50.1254 122.491 49.7254C122.376 49.3254 122.181 49.0054 121.906 48.7654C121.636 48.5204 121.276 48.3979 120.826 48.3979C120.401 48.3979 120.049 48.5104 119.769 48.7354C119.494 48.9554 119.286 49.2654 119.146 49.6654C119.011 50.0604 118.944 50.5179 118.944 51.0379C118.944 51.5079 119.004 51.9454 119.124 52.3504C119.249 52.7504 119.449 53.0754 119.724 53.3254C119.999 53.5704 120.366 53.6929 120.826 53.6929ZM128.83 55.0804C128.45 55.0804 128.083 55.0254 127.728 54.9154C127.378 54.8004 127.063 54.6354 126.783 54.4204C126.503 54.2004 126.28 53.9304 126.115 53.6104C125.95 53.2904 125.868 52.9179 125.868 52.4929V47.1754H127.698V52.2829C127.698 52.7029 127.83 53.0479 128.095 53.3179C128.365 53.5879 128.77 53.7229 129.31 53.7229C129.8 53.7229 130.193 53.5954 130.488 53.3404C130.783 53.0804 130.93 52.7079 130.93 52.2229V47.1754H132.745V54.9304H131.343L131.14 53.4154C131.045 53.8404 130.878 54.1754 130.638 54.4204C130.403 54.6604 130.125 54.8304 129.805 54.9304C129.49 55.0304 129.165 55.0804 128.83 55.0804ZM137.614 55.0804C137.074 55.0804 136.561 54.9954 136.076 54.8254C135.596 54.6504 135.191 54.3779 134.861 54.0079C134.536 53.6379 134.331 53.1604 134.246 52.5754H135.851C135.921 52.8604 136.044 53.0929 136.219 53.2729C136.399 53.4529 136.611 53.5854 136.856 53.6704C137.101 53.7504 137.351 53.7904 137.606 53.7904C138.071 53.7904 138.446 53.7104 138.731 53.5504C139.021 53.3904 139.166 53.1429 139.166 52.8079C139.166 52.5629 139.086 52.3679 138.926 52.2229C138.766 52.0779 138.511 51.9679 138.161 51.8929L136.684 51.5554C136.029 51.4104 135.501 51.1704 135.101 50.8354C134.706 50.5004 134.506 50.0279 134.501 49.4179C134.496 48.9579 134.611 48.5479 134.846 48.1879C135.081 47.8279 135.431 47.5454 135.896 47.3404C136.361 47.1304 136.936 47.0254 137.621 47.0254C138.526 47.0254 139.251 47.2279 139.796 47.6329C140.341 48.0329 140.621 48.6054 140.636 49.3504H139.084C139.029 49.0154 138.871 48.7554 138.611 48.5704C138.351 48.3804 138.014 48.2854 137.599 48.2854C137.169 48.2854 136.816 48.3679 136.541 48.5329C136.266 48.6979 136.129 48.9504 136.129 49.2904C136.129 49.5254 136.234 49.7104 136.444 49.8454C136.654 49.9804 136.969 50.0954 137.389 50.1904L138.784 50.5279C139.184 50.6279 139.511 50.7629 139.766 50.9329C140.021 51.1029 140.221 51.2904 140.366 51.4954C140.511 51.6954 140.611 51.9029 140.666 52.1179C140.726 52.3279 140.756 52.5229 140.756 52.7029C140.756 53.2029 140.626 53.6304 140.366 53.9854C140.111 54.3354 139.749 54.6054 139.279 54.7954C138.809 54.9854 138.254 55.0804 137.614 55.0804Z" fill="#052443"/>
</g>
<g opacity="0.3">
<rect x="819" y="28.9304" width="106" height="42" rx="8" fill="#FFD900"/>
<path d="M847.408 44.0854H849.23V54.9304H847.588L842.135 46.9729V54.9304H840.313V44.0854H842.098L847.408 51.8329V44.0854ZM852.849 51.4729C852.844 51.9129 852.914 52.3029 853.059 52.6429C853.204 52.9829 853.419 53.2504 853.704 53.4454C853.989 53.6354 854.342 53.7304 854.762 53.7304C855.192 53.7304 855.564 53.6354 855.879 53.4454C856.199 53.2504 856.412 52.9554 856.517 52.5604H858.189C858.099 53.1004 857.884 53.5579 857.544 53.9329C857.204 54.3079 856.792 54.5929 856.307 54.7879C855.827 54.9829 855.327 55.0804 854.807 55.0804C854.057 55.0804 853.397 54.9229 852.827 54.6079C852.262 54.2879 851.819 53.8329 851.499 53.2429C851.184 52.6529 851.027 51.9504 851.027 51.1354C851.027 50.3404 851.172 49.6354 851.462 49.0204C851.752 48.4004 852.169 47.9129 852.714 47.5579C853.264 47.2029 853.924 47.0254 854.694 47.0254C855.459 47.0254 856.102 47.1879 856.622 47.5129C857.147 47.8379 857.542 48.2929 857.807 48.8779C858.077 49.4579 858.212 50.1379 858.212 50.9179V51.4729H852.849ZM852.849 50.3404H856.487C856.487 49.9654 856.422 49.6279 856.292 49.3279C856.162 49.0229 855.962 48.7829 855.692 48.6079C855.427 48.4279 855.092 48.3379 854.687 48.3379C854.287 48.3379 853.949 48.4354 853.674 48.6304C853.399 48.8254 853.192 49.0779 853.052 49.3879C852.912 49.6929 852.844 50.0104 852.849 50.3404ZM866.602 54.9304H864.667L862.627 52.1704L860.594 54.9304H858.659L861.637 50.8954L858.907 47.1754H860.842L862.634 49.5979L864.427 47.1754H866.369L863.617 50.8954L866.602 54.9304ZM872.248 48.4654H870.515L870.523 52.9129C870.523 53.1429 870.548 53.3129 870.598 53.4229C870.653 53.5279 870.738 53.5979 870.853 53.6329C870.973 53.6629 871.133 53.6779 871.333 53.6779H872.285V54.8329C872.185 54.8729 872.033 54.9079 871.828 54.9379C871.628 54.9729 871.358 54.9904 871.018 54.9904C870.403 54.9904 869.925 54.9104 869.585 54.7504C869.25 54.5854 869.018 54.3529 868.888 54.0529C868.758 53.7529 868.693 53.3954 868.693 52.9804V48.4654H867.433V47.1754H868.745L869.203 44.8729H870.515V47.1679H872.248V48.4654Z" fill="#052443"/>
<path d="M900.75 49.656H885.75" stroke="#052443" stroke-width="1.5" stroke-linecap="round" stroke-linejoin="round"/>
<path d="M894.7 43.6317L900.75 49.6557L894.7 55.6807" stroke="#052443" stroke-width="1.5" stroke-linecap="round" stroke-linejoin="round"/>
</g>
</g>
<defs>
<filter id="filter0_d_358_1009" x="0" y="0.93042" width="954" height="100" filterUnits="userSpaceOnUse" color-interpolation-filters="sRGB">
<feFlood flood-opacity="0" result="BackgroundImageFix"/>
<feColorMatrix in="SourceAlpha" type="matrix" values="0 0 0 0 0 0 0 0 0 0 0 0 0 0 0 0 0 0 127 0" result="hardAlpha"/>
<feOffset dy="1"/>
<feGaussianBlur stdDeviation="2.5"/>
<feColorMatrix type="matrix" values="0 0 0 0 0.392157 0 0 0 0 0.454902 0 0 0 0 0.545098 0 0 0 0.12 0"/>
<feBlend mode="normal" in2="BackgroundImageFix" result="effect1_dropShadow_358_1009"/>
<feBlend mode="normal" in="SourceGraphic" in2="effect1_dropShadow_358_1009" result="shape"/>
</filter>
</defs>
</svg>
