<svg width="920" height="80" viewBox="0 0 920 80" fill="none" xmlns="http://www.w3.org/2000/svg">
<rect x="0.5" y="0.5" width="919" height="79" rx="8.16" fill="#FAFAFA" fill-opacity="0.7"/>
<rect x="0.5" y="0.5" width="919" height="79" rx="8.16" stroke="#9E9E9E" stroke-dasharray="10 10"/>
<path d="M395.398 38H393.989C393.905 37.5947 393.759 37.2386 393.551 36.9318C393.347 36.625 393.097 36.3674 392.801 36.1591C392.509 35.947 392.186 35.7879 391.83 35.6818C391.473 35.5758 391.102 35.5227 390.716 35.5227C390.011 35.5227 389.373 35.7008 388.801 36.0568C388.233 36.4129 387.78 36.9375 387.443 37.6307C387.11 38.3239 386.943 39.1742 386.943 40.1818C386.943 41.1894 387.11 42.0398 387.443 42.733C387.78 43.4261 388.233 43.9508 388.801 44.3068C389.373 44.6629 390.011 44.8409 390.716 44.8409C391.102 44.8409 391.473 44.7879 391.83 44.6818C392.186 44.5758 392.509 44.4186 392.801 44.2102C393.097 43.9981 393.347 43.7386 393.551 43.4318C393.759 43.1212 393.905 42.7652 393.989 42.3636H395.398C395.292 42.9583 395.098 43.4905 394.818 43.9602C394.538 44.4299 394.189 44.8295 393.773 45.1591C393.356 45.4848 392.888 45.733 392.369 45.9034C391.854 46.0739 391.303 46.1591 390.716 46.1591C389.723 46.1591 388.841 45.9167 388.068 45.4318C387.295 44.947 386.688 44.2576 386.244 43.3636C385.801 42.4697 385.58 41.4091 385.58 40.1818C385.58 38.9545 385.801 37.8939 386.244 37C386.688 36.1061 387.295 35.4167 388.068 34.9318C388.841 34.447 389.723 34.2045 390.716 34.2045C391.303 34.2045 391.854 34.2898 392.369 34.4602C392.888 34.6307 393.356 34.8807 393.773 35.2102C394.189 35.536 394.538 35.9337 394.818 36.4034C395.098 36.8693 395.292 37.4015 395.398 38ZM398.834 34.3636V46H397.493V34.3636H398.834ZM401.29 46V37.2727H402.631V46H401.29ZM401.972 35.8182C401.71 35.8182 401.485 35.7292 401.295 35.5511C401.11 35.3731 401.017 35.1591 401.017 34.9091C401.017 34.6591 401.11 34.4451 401.295 34.267C401.485 34.089 401.71 34 401.972 34C402.233 34 402.456 34.089 402.642 34.267C402.831 34.4451 402.926 34.6591 402.926 34.9091C402.926 35.1591 402.831 35.3731 402.642 35.5511C402.456 35.7292 402.233 35.8182 401.972 35.8182ZM408.632 46.1818C407.814 46.1818 407.109 45.9886 406.518 45.6023C405.928 45.2159 405.473 44.6837 405.155 44.0057C404.837 43.3277 404.678 42.553 404.678 41.6818C404.678 40.7955 404.84 40.0133 405.166 39.3352C405.496 38.6534 405.954 38.1212 406.541 37.7386C407.132 37.3523 407.821 37.1591 408.609 37.1591C409.223 37.1591 409.776 37.2727 410.268 37.5C410.761 37.7273 411.164 38.0455 411.479 38.4545C411.793 38.8636 411.988 39.3409 412.064 39.8864H410.723C410.621 39.4886 410.393 39.1364 410.041 38.8295C409.693 38.5189 409.223 38.3636 408.632 38.3636C408.109 38.3636 407.651 38.5 407.257 38.7727C406.867 39.0417 406.562 39.4223 406.342 39.9148C406.126 40.4034 406.018 40.9773 406.018 41.6364C406.018 42.3106 406.125 42.8977 406.337 43.3977C406.553 43.8977 406.856 44.286 407.246 44.5625C407.64 44.839 408.102 44.9773 408.632 44.9773C408.981 44.9773 409.297 44.9167 409.581 44.7955C409.865 44.6742 410.106 44.5 410.303 44.2727C410.5 44.0455 410.64 43.7727 410.723 43.4545H412.064C411.988 43.9697 411.801 44.4337 411.501 44.8466C411.206 45.2557 410.814 45.5814 410.325 45.8239C409.84 46.0625 409.276 46.1818 408.632 46.1818ZM415.274 42.8182L415.251 41.1591H415.524L419.342 37.2727H421.001L416.933 41.3864H416.82L415.274 42.8182ZM414.024 46V34.3636H415.365V46H414.024ZM419.57 46L416.161 41.6818L417.115 40.75L421.274 46H419.57ZM428.568 40.75V46H427.227V34.3636H428.568V38.6364H428.682C428.886 38.1856 429.193 37.8277 429.602 37.5625C430.015 37.2936 430.564 37.1591 431.25 37.1591C431.845 37.1591 432.366 37.2784 432.812 37.517C433.259 37.7519 433.606 38.1136 433.852 38.6023C434.102 39.0871 434.227 39.7045 434.227 40.4545V46H432.886V40.5455C432.886 39.8523 432.706 39.3163 432.347 38.9375C431.991 38.5549 431.496 38.3636 430.864 38.3636C430.424 38.3636 430.03 38.4564 429.682 38.642C429.337 38.8277 429.064 39.0985 428.864 39.4545C428.667 39.8106 428.568 40.2424 428.568 40.75ZM440.339 46.1818C439.499 46.1818 438.773 45.9962 438.163 45.625C437.557 45.25 437.089 44.7273 436.76 44.0568C436.434 43.3826 436.271 42.5985 436.271 41.7045C436.271 40.8106 436.434 40.0227 436.76 39.3409C437.089 38.6553 437.548 38.1212 438.135 37.7386C438.726 37.3523 439.415 37.1591 440.203 37.1591C440.658 37.1591 441.107 37.2348 441.55 37.3864C441.993 37.5379 442.396 37.7841 442.76 38.125C443.124 38.4621 443.413 38.9091 443.629 39.4659C443.845 40.0227 443.953 40.7083 443.953 41.5227V42.0909H437.226V40.9318H442.589C442.589 40.4394 442.491 40 442.294 39.6136C442.101 39.2273 441.824 38.9223 441.464 38.6989C441.108 38.4754 440.688 38.3636 440.203 38.3636C439.669 38.3636 439.207 38.4962 438.817 38.7614C438.43 39.0227 438.133 39.3636 437.925 39.7841C437.716 40.2045 437.612 40.6553 437.612 41.1364V41.9091C437.612 42.5682 437.726 43.1269 437.953 43.5852C438.184 44.0398 438.504 44.3864 438.913 44.625C439.322 44.8598 439.798 44.9773 440.339 44.9773C440.692 44.9773 441.01 44.928 441.294 44.8295C441.582 44.7273 441.83 44.5758 442.038 44.375C442.247 44.1705 442.408 43.9167 442.521 43.6136L443.817 43.9773C443.68 44.4167 443.451 44.803 443.129 45.1364C442.807 45.4659 442.41 45.7235 441.936 45.9091C441.463 46.0909 440.93 46.1818 440.339 46.1818ZM445.993 46V37.2727H447.288V38.5909H447.379C447.538 38.1591 447.826 37.8087 448.243 37.5398C448.66 37.2708 449.129 37.1364 449.652 37.1364C449.75 37.1364 449.874 37.1383 450.021 37.142C450.169 37.1458 450.281 37.1515 450.357 37.1591V38.5227C450.311 38.5114 450.207 38.4943 450.044 38.4716C449.885 38.4451 449.716 38.4318 449.538 38.4318C449.114 38.4318 448.735 38.5208 448.402 38.6989C448.072 38.8731 447.811 39.1155 447.618 39.4261C447.429 39.733 447.334 40.0833 447.334 40.4773V46H445.993ZM455.339 46.1818C454.499 46.1818 453.773 45.9962 453.163 45.625C452.557 45.25 452.089 44.7273 451.76 44.0568C451.434 43.3826 451.271 42.5985 451.271 41.7045C451.271 40.8106 451.434 40.0227 451.76 39.3409C452.089 38.6553 452.548 38.1212 453.135 37.7386C453.726 37.3523 454.415 37.1591 455.203 37.1591C455.658 37.1591 456.107 37.2348 456.55 37.3864C456.993 37.5379 457.396 37.7841 457.76 38.125C458.124 38.4621 458.413 38.9091 458.629 39.4659C458.845 40.0227 458.953 40.7083 458.953 41.5227V42.0909H452.226V40.9318H457.589C457.589 40.4394 457.491 40 457.294 39.6136C457.101 39.2273 456.824 38.9223 456.464 38.6989C456.108 38.4754 455.688 38.3636 455.203 38.3636C454.669 38.3636 454.207 38.4962 453.817 38.7614C453.43 39.0227 453.133 39.3636 452.925 39.7841C452.716 40.2045 452.612 40.6553 452.612 41.1364V41.9091C452.612 42.5682 452.726 43.1269 452.953 43.5852C453.184 44.0398 453.504 44.3864 453.913 44.625C454.322 44.8598 454.798 44.9773 455.339 44.9773C455.692 44.9773 456.01 44.928 456.294 44.8295C456.582 44.7273 456.83 44.5758 457.038 44.375C457.247 44.1705 457.408 43.9167 457.521 43.6136L458.817 43.9773C458.68 44.4167 458.451 44.803 458.129 45.1364C457.807 45.4659 457.41 45.7235 456.936 45.9091C456.463 46.0909 455.93 46.1818 455.339 46.1818Z" fill="#136DC7"/>
<path d="M469.288 37.2727V38.4091H464.766V37.2727H469.288ZM466.084 35.1818H467.425V43.5C467.425 43.8788 467.48 44.1629 467.589 44.3523C467.703 44.5379 467.847 44.6629 468.021 44.7273C468.199 44.7879 468.387 44.8182 468.584 44.8182C468.732 44.8182 468.853 44.8106 468.947 44.7955C469.042 44.7765 469.118 44.7614 469.175 44.75L469.447 45.9545C469.357 45.9886 469.23 46.0227 469.067 46.0568C468.904 46.0947 468.697 46.1136 468.447 46.1136C468.069 46.1136 467.697 46.0322 467.334 45.8693C466.974 45.7064 466.675 45.4583 466.436 45.125C466.201 44.7917 466.084 44.3712 466.084 43.8636V35.1818ZM474.757 46.1818C473.969 46.1818 473.278 45.9943 472.683 45.6193C472.092 45.2443 471.63 44.7197 471.297 44.0455C470.967 43.3712 470.803 42.5833 470.803 41.6818C470.803 40.7727 470.967 39.9792 471.297 39.3011C471.63 38.6231 472.092 38.0966 472.683 37.7216C473.278 37.3466 473.969 37.1591 474.757 37.1591C475.545 37.1591 476.234 37.3466 476.825 37.7216C477.42 38.0966 477.882 38.6231 478.212 39.3011C478.545 39.9792 478.712 40.7727 478.712 41.6818C478.712 42.5833 478.545 43.3712 478.212 44.0455C477.882 44.7197 477.42 45.2443 476.825 45.6193C476.234 45.9943 475.545 46.1818 474.757 46.1818ZM474.757 44.9773C475.356 44.9773 475.848 44.8239 476.234 44.517C476.621 44.2102 476.907 43.8068 477.092 43.3068C477.278 42.8068 477.371 42.2652 477.371 41.6818C477.371 41.0985 477.278 40.5549 477.092 40.0511C476.907 39.5473 476.621 39.1402 476.234 38.8295C475.848 38.5189 475.356 38.3636 474.757 38.3636C474.159 38.3636 473.666 38.5189 473.28 38.8295C472.893 39.1402 472.607 39.5473 472.422 40.0511C472.236 40.5549 472.143 41.0985 472.143 41.6818C472.143 42.2652 472.236 42.8068 472.422 43.3068C472.607 43.8068 472.893 44.2102 473.28 44.517C473.666 44.8239 474.159 44.9773 474.757 44.9773ZM490.759 42.4318V37.2727H492.099V46H490.759V44.5227H490.668C490.463 44.9659 490.145 45.3428 489.713 45.6534C489.281 45.9602 488.736 46.1136 488.077 46.1136C487.531 46.1136 487.046 45.9943 486.622 45.7557C486.198 45.5133 485.865 45.1496 485.622 44.6648C485.38 44.1761 485.259 43.5606 485.259 42.8182V37.2727H486.599V42.7273C486.599 43.3636 486.777 43.8712 487.134 44.25C487.493 44.6288 487.952 44.8182 488.509 44.8182C488.842 44.8182 489.181 44.733 489.526 44.5625C489.874 44.392 490.166 44.1307 490.401 43.7784C490.639 43.4261 490.759 42.9773 490.759 42.4318ZM494.555 49.2727V37.2727H495.851V38.6591H496.01C496.108 38.5076 496.245 38.3144 496.419 38.0795C496.597 37.8409 496.851 37.6288 497.18 37.4432C497.514 37.2538 497.964 37.1591 498.533 37.1591C499.268 37.1591 499.915 37.3428 500.476 37.7102C501.036 38.0777 501.474 38.5985 501.788 39.2727C502.103 39.947 502.26 40.7424 502.26 41.6591C502.26 42.5833 502.103 43.3845 501.788 44.0625C501.474 44.7367 501.038 45.2595 500.482 45.6307C499.925 45.9981 499.283 46.1818 498.555 46.1818C497.995 46.1818 497.546 46.089 497.209 45.9034C496.872 45.714 496.612 45.5 496.43 45.2614C496.249 45.0189 496.108 44.8182 496.01 44.6591H495.896V49.2727H494.555ZM495.874 41.6364C495.874 42.2955 495.97 42.8769 496.163 43.3807C496.357 43.8807 496.639 44.2727 497.01 44.5568C497.381 44.8371 497.836 44.9773 498.374 44.9773C498.934 44.9773 499.402 44.8295 499.777 44.5341C500.156 44.2348 500.44 43.8333 500.629 43.3295C500.822 42.822 500.919 42.2576 500.919 41.6364C500.919 41.0227 500.824 40.4697 500.635 39.9773C500.449 39.4811 500.167 39.089 499.788 38.8011C499.413 38.5095 498.942 38.3636 498.374 38.3636C497.828 38.3636 497.37 38.5019 496.999 38.7784C496.627 39.0511 496.347 39.4337 496.158 39.9261C495.968 40.4148 495.874 40.9848 495.874 41.6364ZM505.646 34.3636V46H504.305V34.3636H505.646ZM511.648 46.1818C510.86 46.1818 510.169 45.9943 509.574 45.6193C508.983 45.2443 508.521 44.7197 508.188 44.0455C507.858 43.3712 507.693 42.5833 507.693 41.6818C507.693 40.7727 507.858 39.9792 508.188 39.3011C508.521 38.6231 508.983 38.0966 509.574 37.7216C510.169 37.3466 510.86 37.1591 511.648 37.1591C512.436 37.1591 513.125 37.3466 513.716 37.7216C514.311 38.0966 514.773 38.6231 515.102 39.3011C515.436 39.9792 515.602 40.7727 515.602 41.6818C515.602 42.5833 515.436 43.3712 515.102 44.0455C514.773 44.7197 514.311 45.2443 513.716 45.6193C513.125 45.9943 512.436 46.1818 511.648 46.1818ZM511.648 44.9773C512.246 44.9773 512.739 44.8239 513.125 44.517C513.511 44.2102 513.797 43.8068 513.983 43.3068C514.169 42.8068 514.261 42.2652 514.261 41.6818C514.261 41.0985 514.169 40.5549 513.983 40.0511C513.797 39.5473 513.511 39.1402 513.125 38.8295C512.739 38.5189 512.246 38.3636 511.648 38.3636C511.049 38.3636 510.557 38.5189 510.17 38.8295C509.784 39.1402 509.498 39.5473 509.312 40.0511C509.127 40.5549 509.034 41.0985 509.034 41.6818C509.034 42.2652 509.127 42.8068 509.312 43.3068C509.498 43.8068 509.784 44.2102 510.17 44.517C510.557 44.8239 511.049 44.9773 511.648 44.9773ZM520.217 46.2045C519.664 46.2045 519.162 46.1004 518.712 45.892C518.261 45.6799 517.903 45.375 517.638 44.9773C517.373 44.5758 517.24 44.0909 517.24 43.5227C517.24 43.0227 517.339 42.6174 517.536 42.3068C517.732 41.9924 517.996 41.7462 518.325 41.5682C518.655 41.3902 519.018 41.2576 519.416 41.1705C519.818 41.0795 520.221 41.0076 520.626 40.9545C521.157 40.8864 521.587 40.8352 521.916 40.8011C522.25 40.7633 522.492 40.7008 522.643 40.6136C522.799 40.5265 522.876 40.375 522.876 40.1591V40.1136C522.876 39.553 522.723 39.1174 522.416 38.8068C522.113 38.4962 521.653 38.3409 521.036 38.3409C520.395 38.3409 519.893 38.4811 519.53 38.7614C519.166 39.0417 518.911 39.3409 518.763 39.6591L517.49 39.2045C517.717 38.6742 518.02 38.2614 518.399 37.9659C518.782 37.6667 519.198 37.4583 519.649 37.3409C520.104 37.2197 520.551 37.1591 520.99 37.1591C521.27 37.1591 521.592 37.1932 521.956 37.2614C522.323 37.3258 522.678 37.4602 523.018 37.6648C523.363 37.8693 523.649 38.178 523.876 38.5909C524.104 39.0038 524.217 39.5568 524.217 40.25V46H522.876V44.8182H522.808C522.717 45.0076 522.566 45.2102 522.354 45.4261C522.142 45.642 521.859 45.8258 521.507 45.9773C521.155 46.1288 520.725 46.2045 520.217 46.2045ZM520.422 45C520.952 45 521.399 44.8958 521.763 44.6875C522.13 44.4792 522.407 44.2102 522.592 43.8807C522.782 43.5511 522.876 43.2045 522.876 42.8409V41.6136C522.82 41.6818 522.695 41.7443 522.501 41.8011C522.312 41.8542 522.092 41.9015 521.842 41.9432C521.596 41.9811 521.356 42.0152 521.121 42.0455C520.89 42.072 520.702 42.0947 520.558 42.1136C520.21 42.1591 519.884 42.233 519.581 42.3352C519.282 42.4337 519.039 42.5833 518.854 42.7841C518.672 42.9811 518.581 43.25 518.581 43.5909C518.581 44.0568 518.753 44.4091 519.098 44.6477C519.446 44.8826 519.888 45 520.422 45ZM529.96 46.1818C529.233 46.1818 528.591 45.9981 528.034 45.6307C527.477 45.2595 527.042 44.7367 526.727 44.0625C526.413 43.3845 526.256 42.5833 526.256 41.6591C526.256 40.7424 526.413 39.947 526.727 39.2727C527.042 38.5985 527.479 38.0777 528.04 37.7102C528.6 37.3428 529.248 37.1591 529.983 37.1591C530.551 37.1591 531 37.2538 531.33 37.4432C531.663 37.6288 531.917 37.8409 532.091 38.0795C532.269 38.3144 532.407 38.5076 532.506 38.6591H532.619V34.3636H533.96V46H532.665V44.6591H532.506C532.407 44.8182 532.267 45.0189 532.085 45.2614C531.903 45.5 531.644 45.714 531.307 45.9034C530.97 46.089 530.521 46.1818 529.96 46.1818ZM530.142 44.9773C530.68 44.9773 531.134 44.8371 531.506 44.5568C531.877 44.2727 532.159 43.8807 532.352 43.3807C532.545 42.8769 532.642 42.2955 532.642 41.6364C532.642 40.9848 532.547 40.4148 532.358 39.9261C532.169 39.4337 531.888 39.0511 531.517 38.7784C531.146 38.5019 530.688 38.3636 530.142 38.3636C529.574 38.3636 529.1 38.5095 528.722 38.8011C528.347 39.089 528.064 39.4811 527.875 39.9773C527.689 40.4697 527.597 41.0227 527.597 41.6364C527.597 42.2576 527.691 42.822 527.881 43.3295C528.074 43.8333 528.358 44.2348 528.733 44.5341C529.112 44.8295 529.581 44.9773 530.142 44.9773Z" fill="#052443"/>
</svg>
