<svg width="954" height="273" viewBox="0 0 954 273" fill="none" xmlns="http://www.w3.org/2000/svg">
<g filter="url(#filter0_d_358_964)">
<rect x="5" y="4" width="944" height="262.93" rx="8" fill="white"/>
<rect x="29.5" y="28.5" width="895" height="213.93" rx="8.16" fill="#FAFAFA" fill-opacity="0.7"/>
<rect x="29.5" y="28.5" width="895" height="213.93" rx="8.16" stroke="#9E9E9E" stroke-dasharray="10 10"/>
<rect x="431" y="78" width="92" height="52" rx="26" fill="#136DC7" fill-opacity="0.1"/>
<path d="M470.438 111.5C469.857 111.5 469.301 111.27 468.891 110.859C468.48 110.449 468.25 109.893 468.25 109.312V106.188C468.25 105.939 468.349 105.7 468.525 105.525C468.7 105.349 468.939 105.25 469.188 105.25C469.436 105.25 469.675 105.349 469.85 105.525C470.026 105.7 470.125 105.939 470.125 106.188V109.312C470.125 109.485 470.265 109.625 470.438 109.625H483.562C483.645 109.625 483.725 109.592 483.783 109.533C483.842 109.475 483.875 109.395 483.875 109.312V106.188C483.875 105.939 483.974 105.7 484.15 105.525C484.325 105.349 484.564 105.25 484.812 105.25C485.061 105.25 485.3 105.349 485.475 105.525C485.651 105.7 485.75 105.939 485.75 106.188V109.312C485.75 109.893 485.52 110.449 485.109 110.859C484.699 111.27 484.143 111.5 483.562 111.5H470.438Z" fill="#136DC7"/>
<path d="M481.725 99.8999C481.812 99.9869 481.881 100.09 481.928 100.204C481.975 100.318 481.999 100.439 481.999 100.562C481.999 100.685 481.975 100.807 481.928 100.921C481.881 101.035 481.812 101.138 481.725 101.225C481.638 101.312 481.535 101.381 481.421 101.428C481.307 101.475 481.186 101.499 481.063 101.499C480.939 101.499 480.818 101.475 480.704 101.428C480.59 101.381 480.487 101.312 480.4 101.225L477.938 98.7637V105.875C477.938 106.124 477.839 106.362 477.663 106.538C477.487 106.714 477.249 106.812 477 106.812C476.751 106.812 476.513 106.714 476.337 106.538C476.161 106.362 476.063 106.124 476.063 105.875V98.7637L473.6 101.225C473.513 101.312 473.41 101.381 473.296 101.428C473.182 101.475 473.061 101.499 472.938 101.499C472.814 101.499 472.693 101.475 472.579 101.428C472.465 101.381 472.362 101.312 472.275 101.225C472.188 101.138 472.119 101.035 472.072 100.921C472.025 100.807 472.001 100.685 472.001 100.562C472.001 100.439 472.025 100.318 472.072 100.204C472.119 100.09 472.188 99.9869 472.275 99.8999L476.338 95.8374C476.424 95.7504 476.528 95.6813 476.641 95.6341C476.755 95.587 476.877 95.5627 477 95.5627C477.123 95.5627 477.245 95.587 477.359 95.6341C477.472 95.6813 477.576 95.7504 477.663 95.8374L481.725 99.8999Z" fill="#136DC7"/>
<path d="M412.398 164.93H410.989C410.905 164.525 410.759 164.169 410.551 163.862C410.347 163.555 410.097 163.298 409.801 163.09C409.509 162.877 409.186 162.718 408.83 162.612C408.473 162.506 408.102 162.453 407.716 162.453C407.011 162.453 406.373 162.631 405.801 162.987C405.233 163.343 404.78 163.868 404.443 164.561C404.11 165.254 403.943 166.105 403.943 167.112C403.943 168.12 404.11 168.97 404.443 169.663C404.78 170.357 405.233 170.881 405.801 171.237C406.373 171.593 407.011 171.771 407.716 171.771C408.102 171.771 408.473 171.718 408.83 171.612C409.186 171.506 409.509 171.349 409.801 171.141C410.097 170.929 410.347 170.669 410.551 170.362C410.759 170.052 410.905 169.696 410.989 169.294H412.398C412.292 169.889 412.098 170.421 411.818 170.891C411.538 171.36 411.189 171.76 410.773 172.09C410.356 172.415 409.888 172.663 409.369 172.834C408.854 173.004 408.303 173.09 407.716 173.09C406.723 173.09 405.841 172.847 405.068 172.362C404.295 171.877 403.688 171.188 403.244 170.294C402.801 169.4 402.58 168.34 402.58 167.112C402.58 165.885 402.801 164.824 403.244 163.93C403.688 163.036 404.295 162.347 405.068 161.862C405.841 161.377 406.723 161.135 407.716 161.135C408.303 161.135 408.854 161.22 409.369 161.391C409.888 161.561 410.356 161.811 410.773 162.141C411.189 162.466 411.538 162.864 411.818 163.334C412.098 163.8 412.292 164.332 412.398 164.93ZM415.834 161.294V172.93H414.493V161.294H415.834ZM418.29 172.93V164.203H419.631V172.93H418.29ZM418.972 162.749C418.71 162.749 418.485 162.66 418.295 162.482C418.11 162.304 418.017 162.09 418.017 161.84C418.017 161.59 418.11 161.375 418.295 161.197C418.485 161.019 418.71 160.93 418.972 160.93C419.233 160.93 419.456 161.019 419.642 161.197C419.831 161.375 419.926 161.59 419.926 161.84C419.926 162.09 419.831 162.304 419.642 162.482C419.456 162.66 419.233 162.749 418.972 162.749ZM425.632 173.112C424.814 173.112 424.109 172.919 423.518 172.533C422.928 172.146 422.473 171.614 422.155 170.936C421.837 170.258 421.678 169.483 421.678 168.612C421.678 167.726 421.84 166.944 422.166 166.266C422.496 165.584 422.954 165.052 423.541 164.669C424.132 164.283 424.821 164.09 425.609 164.09C426.223 164.09 426.776 164.203 427.268 164.43C427.761 164.658 428.164 164.976 428.479 165.385C428.793 165.794 428.988 166.271 429.064 166.817H427.723C427.621 166.419 427.393 166.067 427.041 165.76C426.693 165.449 426.223 165.294 425.632 165.294C425.109 165.294 424.651 165.43 424.257 165.703C423.867 165.972 423.562 166.353 423.342 166.845C423.126 167.334 423.018 167.908 423.018 168.567C423.018 169.241 423.125 169.828 423.337 170.328C423.553 170.828 423.856 171.216 424.246 171.493C424.64 171.769 425.102 171.908 425.632 171.908C425.981 171.908 426.297 171.847 426.581 171.726C426.865 171.605 427.106 171.43 427.303 171.203C427.5 170.976 427.64 170.703 427.723 170.385H429.064C428.988 170.9 428.801 171.364 428.501 171.777C428.206 172.186 427.814 172.512 427.325 172.754C426.84 172.993 426.276 173.112 425.632 173.112ZM432.274 169.749L432.251 168.09H432.524L436.342 164.203H438.001L433.933 168.317H433.82L432.274 169.749ZM431.024 172.93V161.294H432.365V172.93H431.024ZM436.57 172.93L433.161 168.612L434.115 167.68L438.274 172.93H436.57ZM445.568 167.68V172.93H444.227V161.294H445.568V165.567H445.682C445.886 165.116 446.193 164.758 446.602 164.493C447.015 164.224 447.564 164.09 448.25 164.09C448.845 164.09 449.366 164.209 449.812 164.447C450.259 164.682 450.606 165.044 450.852 165.533C451.102 166.018 451.227 166.635 451.227 167.385V172.93H449.886V167.476C449.886 166.783 449.706 166.247 449.347 165.868C448.991 165.485 448.496 165.294 447.864 165.294C447.424 165.294 447.03 165.387 446.682 165.572C446.337 165.758 446.064 166.029 445.864 166.385C445.667 166.741 445.568 167.173 445.568 167.68ZM457.339 173.112C456.499 173.112 455.773 172.927 455.163 172.555C454.557 172.18 454.089 171.658 453.76 170.987C453.434 170.313 453.271 169.529 453.271 168.635C453.271 167.741 453.434 166.953 453.76 166.271C454.089 165.586 454.548 165.052 455.135 164.669C455.726 164.283 456.415 164.09 457.203 164.09C457.658 164.09 458.107 164.165 458.55 164.317C458.993 164.468 459.396 164.715 459.76 165.055C460.124 165.393 460.413 165.84 460.629 166.396C460.845 166.953 460.953 167.639 460.953 168.453V169.021H454.226V167.862H459.589C459.589 167.37 459.491 166.93 459.294 166.544C459.101 166.158 458.824 165.853 458.464 165.629C458.108 165.406 457.688 165.294 457.203 165.294C456.669 165.294 456.207 165.427 455.817 165.692C455.43 165.953 455.133 166.294 454.925 166.715C454.716 167.135 454.612 167.586 454.612 168.067V168.84C454.612 169.499 454.726 170.057 454.953 170.516C455.184 170.97 455.504 171.317 455.913 171.555C456.322 171.79 456.798 171.908 457.339 171.908C457.692 171.908 458.01 171.858 458.294 171.76C458.582 171.658 458.83 171.506 459.038 171.305C459.247 171.101 459.408 170.847 459.521 170.544L460.817 170.908C460.68 171.347 460.451 171.733 460.129 172.067C459.807 172.396 459.41 172.654 458.936 172.84C458.463 173.021 457.93 173.112 457.339 173.112ZM462.993 172.93V164.203H464.288V165.521H464.379C464.538 165.09 464.826 164.739 465.243 164.47C465.66 164.201 466.129 164.067 466.652 164.067C466.75 164.067 466.874 164.069 467.021 164.072C467.169 164.076 467.281 164.082 467.357 164.09V165.453C467.311 165.442 467.207 165.425 467.044 165.402C466.885 165.375 466.716 165.362 466.538 165.362C466.114 165.362 465.735 165.451 465.402 165.629C465.072 165.804 464.811 166.046 464.618 166.357C464.429 166.663 464.334 167.014 464.334 167.408V172.93H462.993ZM472.339 173.112C471.499 173.112 470.773 172.927 470.163 172.555C469.557 172.18 469.089 171.658 468.76 170.987C468.434 170.313 468.271 169.529 468.271 168.635C468.271 167.741 468.434 166.953 468.76 166.271C469.089 165.586 469.548 165.052 470.135 164.669C470.726 164.283 471.415 164.09 472.203 164.09C472.658 164.09 473.107 164.165 473.55 164.317C473.993 164.468 474.396 164.715 474.76 165.055C475.124 165.393 475.413 165.84 475.629 166.396C475.845 166.953 475.953 167.639 475.953 168.453V169.021H469.226V167.862H474.589C474.589 167.37 474.491 166.93 474.294 166.544C474.101 166.158 473.824 165.853 473.464 165.629C473.108 165.406 472.688 165.294 472.203 165.294C471.669 165.294 471.207 165.427 470.817 165.692C470.43 165.953 470.133 166.294 469.925 166.715C469.716 167.135 469.612 167.586 469.612 168.067V168.84C469.612 169.499 469.726 170.057 469.953 170.516C470.184 170.97 470.504 171.317 470.913 171.555C471.322 171.79 471.798 171.908 472.339 171.908C472.692 171.908 473.01 171.858 473.294 171.76C473.582 171.658 473.83 171.506 474.038 171.305C474.247 171.101 474.408 170.847 474.521 170.544L475.817 170.908C475.68 171.347 475.451 171.733 475.129 172.067C474.807 172.396 474.41 172.654 473.936 172.84C473.463 173.021 472.93 173.112 472.339 173.112Z" fill="#136DC7"/>
<path d="M486.288 164.203V165.34H481.766V164.203H486.288ZM483.084 162.112H484.425V170.43C484.425 170.809 484.48 171.093 484.589 171.283C484.703 171.468 484.847 171.593 485.021 171.658C485.199 171.718 485.387 171.749 485.584 171.749C485.732 171.749 485.853 171.741 485.947 171.726C486.042 171.707 486.118 171.692 486.175 171.68L486.447 172.885C486.357 172.919 486.23 172.953 486.067 172.987C485.904 173.025 485.697 173.044 485.447 173.044C485.069 173.044 484.697 172.963 484.334 172.8C483.974 172.637 483.675 172.389 483.436 172.055C483.201 171.722 483.084 171.302 483.084 170.794V162.112ZM491.757 173.112C490.969 173.112 490.278 172.925 489.683 172.55C489.092 172.175 488.63 171.65 488.297 170.976C487.967 170.302 487.803 169.514 487.803 168.612C487.803 167.703 487.967 166.91 488.297 166.232C488.63 165.554 489.092 165.027 489.683 164.652C490.278 164.277 490.969 164.09 491.757 164.09C492.545 164.09 493.234 164.277 493.825 164.652C494.42 165.027 494.882 165.554 495.212 166.232C495.545 166.91 495.712 167.703 495.712 168.612C495.712 169.514 495.545 170.302 495.212 170.976C494.882 171.65 494.42 172.175 493.825 172.55C493.234 172.925 492.545 173.112 491.757 173.112ZM491.757 171.908C492.356 171.908 492.848 171.754 493.234 171.447C493.621 171.141 493.907 170.737 494.092 170.237C494.278 169.737 494.371 169.196 494.371 168.612C494.371 168.029 494.278 167.485 494.092 166.982C493.907 166.478 493.621 166.071 493.234 165.76C492.848 165.449 492.356 165.294 491.757 165.294C491.159 165.294 490.666 165.449 490.28 165.76C489.893 166.071 489.607 166.478 489.422 166.982C489.236 167.485 489.143 168.029 489.143 168.612C489.143 169.196 489.236 169.737 489.422 170.237C489.607 170.737 489.893 171.141 490.28 171.447C490.666 171.754 491.159 171.908 491.757 171.908ZM507.759 169.362V164.203H509.099V172.93H507.759V171.453H507.668C507.463 171.896 507.145 172.273 506.713 172.584C506.281 172.891 505.736 173.044 505.077 173.044C504.531 173.044 504.046 172.925 503.622 172.686C503.198 172.444 502.865 172.08 502.622 171.595C502.38 171.107 502.259 170.491 502.259 169.749V164.203H503.599V169.658C503.599 170.294 503.777 170.802 504.134 171.18C504.493 171.559 504.952 171.749 505.509 171.749C505.842 171.749 506.181 171.663 506.526 171.493C506.874 171.322 507.166 171.061 507.401 170.709C507.639 170.357 507.759 169.908 507.759 169.362ZM511.555 176.203V164.203H512.851V165.59H513.01C513.108 165.438 513.245 165.245 513.419 165.01C513.597 164.771 513.851 164.559 514.18 164.374C514.514 164.184 514.964 164.09 515.533 164.09C516.268 164.09 516.915 164.273 517.476 164.641C518.036 165.008 518.474 165.529 518.788 166.203C519.103 166.877 519.26 167.673 519.26 168.59C519.26 169.514 519.103 170.315 518.788 170.993C518.474 171.667 518.038 172.19 517.482 172.561C516.925 172.929 516.283 173.112 515.555 173.112C514.995 173.112 514.546 173.019 514.209 172.834C513.872 172.644 513.612 172.43 513.43 172.192C513.249 171.949 513.108 171.749 513.01 171.59H512.896V176.203H511.555ZM512.874 168.567C512.874 169.226 512.97 169.807 513.163 170.311C513.357 170.811 513.639 171.203 514.01 171.487C514.381 171.768 514.836 171.908 515.374 171.908C515.934 171.908 516.402 171.76 516.777 171.465C517.156 171.165 517.44 170.764 517.629 170.26C517.822 169.752 517.919 169.188 517.919 168.567C517.919 167.953 517.824 167.4 517.635 166.908C517.449 166.411 517.167 166.019 516.788 165.732C516.413 165.44 515.942 165.294 515.374 165.294C514.828 165.294 514.37 165.432 513.999 165.709C513.627 165.982 513.347 166.364 513.158 166.857C512.968 167.345 512.874 167.915 512.874 168.567ZM522.646 161.294V172.93H521.305V161.294H522.646ZM528.648 173.112C527.86 173.112 527.169 172.925 526.574 172.55C525.983 172.175 525.521 171.65 525.188 170.976C524.858 170.302 524.693 169.514 524.693 168.612C524.693 167.703 524.858 166.91 525.188 166.232C525.521 165.554 525.983 165.027 526.574 164.652C527.169 164.277 527.86 164.09 528.648 164.09C529.436 164.09 530.125 164.277 530.716 164.652C531.311 165.027 531.773 165.554 532.102 166.232C532.436 166.91 532.602 167.703 532.602 168.612C532.602 169.514 532.436 170.302 532.102 170.976C531.773 171.65 531.311 172.175 530.716 172.55C530.125 172.925 529.436 173.112 528.648 173.112ZM528.648 171.908C529.246 171.908 529.739 171.754 530.125 171.447C530.511 171.141 530.797 170.737 530.983 170.237C531.169 169.737 531.261 169.196 531.261 168.612C531.261 168.029 531.169 167.485 530.983 166.982C530.797 166.478 530.511 166.071 530.125 165.76C529.739 165.449 529.246 165.294 528.648 165.294C528.049 165.294 527.557 165.449 527.17 165.76C526.784 166.071 526.498 166.478 526.312 166.982C526.127 167.485 526.034 168.029 526.034 168.612C526.034 169.196 526.127 169.737 526.312 170.237C526.498 170.737 526.784 171.141 527.17 171.447C527.557 171.754 528.049 171.908 528.648 171.908ZM537.217 173.135C536.664 173.135 536.162 173.031 535.712 172.822C535.261 172.61 534.903 172.305 534.638 171.908C534.373 171.506 534.24 171.021 534.24 170.453C534.24 169.953 534.339 169.548 534.536 169.237C534.732 168.923 534.996 168.677 535.325 168.499C535.655 168.321 536.018 168.188 536.416 168.101C536.818 168.01 537.221 167.938 537.626 167.885C538.157 167.817 538.587 167.766 538.916 167.732C539.25 167.694 539.492 167.631 539.643 167.544C539.799 167.457 539.876 167.305 539.876 167.09V167.044C539.876 166.483 539.723 166.048 539.416 165.737C539.113 165.427 538.653 165.271 538.036 165.271C537.395 165.271 536.893 165.411 536.53 165.692C536.166 165.972 535.911 166.271 535.763 166.59L534.49 166.135C534.717 165.605 535.02 165.192 535.399 164.896C535.782 164.597 536.198 164.389 536.649 164.271C537.104 164.15 537.551 164.09 537.99 164.09C538.27 164.09 538.592 164.124 538.956 164.192C539.323 164.256 539.678 164.391 540.018 164.595C540.363 164.8 540.649 165.108 540.876 165.521C541.104 165.934 541.217 166.487 541.217 167.18V172.93H539.876V171.749H539.808C539.717 171.938 539.566 172.141 539.354 172.357C539.142 172.572 538.859 172.756 538.507 172.908C538.155 173.059 537.725 173.135 537.217 173.135ZM537.422 171.93C537.952 171.93 538.399 171.826 538.763 171.618C539.13 171.41 539.407 171.141 539.592 170.811C539.782 170.482 539.876 170.135 539.876 169.771V168.544C539.82 168.612 539.695 168.675 539.501 168.732C539.312 168.785 539.092 168.832 538.842 168.874C538.596 168.911 538.356 168.946 538.121 168.976C537.89 169.002 537.702 169.025 537.558 169.044C537.21 169.09 536.884 169.163 536.581 169.266C536.282 169.364 536.039 169.514 535.854 169.715C535.672 169.911 535.581 170.18 535.581 170.521C535.581 170.987 535.753 171.34 536.098 171.578C536.446 171.813 536.888 171.93 537.422 171.93ZM546.96 173.112C546.233 173.112 545.591 172.929 545.034 172.561C544.477 172.19 544.042 171.667 543.727 170.993C543.413 170.315 543.256 169.514 543.256 168.59C543.256 167.673 543.413 166.877 543.727 166.203C544.042 165.529 544.479 165.008 545.04 164.641C545.6 164.273 546.248 164.09 546.983 164.09C547.551 164.09 548 164.184 548.33 164.374C548.663 164.559 548.917 164.771 549.091 165.01C549.269 165.245 549.407 165.438 549.506 165.59H549.619V161.294H550.96V172.93H549.665V171.59H549.506C549.407 171.749 549.267 171.949 549.085 172.192C548.903 172.43 548.644 172.644 548.307 172.834C547.97 173.019 547.521 173.112 546.96 173.112ZM547.142 171.908C547.68 171.908 548.134 171.768 548.506 171.487C548.877 171.203 549.159 170.811 549.352 170.311C549.545 169.807 549.642 169.226 549.642 168.567C549.642 167.915 549.547 167.345 549.358 166.857C549.169 166.364 548.888 165.982 548.517 165.709C548.146 165.432 547.688 165.294 547.142 165.294C546.574 165.294 546.1 165.44 545.722 165.732C545.347 166.019 545.064 166.411 544.875 166.908C544.689 167.4 544.597 167.953 544.597 168.567C544.597 169.188 544.691 169.752 544.881 170.26C545.074 170.764 545.358 171.165 545.733 171.465C546.112 171.76 546.581 171.908 547.142 171.908Z" fill="#052443"/>
</g>
<defs>
<filter id="filter0_d_358_964" x="0" y="0" width="954" height="272.93" filterUnits="userSpaceOnUse" color-interpolation-filters="sRGB">
<feFlood flood-opacity="0" result="BackgroundImageFix"/>
<feColorMatrix in="SourceAlpha" type="matrix" values="0 0 0 0 0 0 0 0 0 0 0 0 0 0 0 0 0 0 127 0" result="hardAlpha"/>
<feOffset dy="1"/>
<feGaussianBlur stdDeviation="2.5"/>
<feColorMatrix type="matrix" values="0 0 0 0 0.392157 0 0 0 0 0.454902 0 0 0 0 0.545098 0 0 0 0.12 0"/>
<feBlend mode="normal" in2="BackgroundImageFix" result="effect1_dropShadow_358_964"/>
<feBlend mode="normal" in="SourceGraphic" in2="effect1_dropShadow_358_964" result="shape"/>
</filter>
</defs>
</svg>
